<?xml version="1.0" encoding="UTF-8"?>
<svg version="1.1" xmlns="http://www.w3.org/2000/svg" width="697" height="833">
<path d="M0 0 C1.03125 0.5775 2.0625 1.155 3.125 1.75 C12.9010232 9.40080076 18.54769852 17.43382469 20.73828125 29.7734375 C21 32 21 32 21 36 C21.84175781 36.24621094 22.68351563 36.49242187 23.55078125 36.74609375 C27.36712102 38.13346076 30.73167362 39.96465539 34.1875 42.0625 C34.84242432 42.45880615 35.49734863 42.8551123 36.17211914 43.26342773 C58.39882167 57.00756744 73.88631334 77.51557981 80 103 C80.22429688 103.9178125 80.44859375 104.835625 80.6796875 105.78125 C91.14262026 159.09920871 63.79440093 214.11638096 35 257 C31.60234917 261.86312927 28.03221178 266.58284724 24.37011719 271.24902344 C23.0153427 272.98039239 21.68057217 274.72536184 20.3515625 276.4765625 C15.05370953 283.44705067 9.5901095 290.2621627 4 297 C3.34 296.67 2.68 296.34 2 296 C2.56283691 295.15630859 3.12567383 294.31261719 3.70556641 293.44335938 C57.4907135 213.52191276 57.4907135 213.52191276 65.3125 120.1875 C60.36053321 97.64466473 48.85130544 77.08385971 29.06640625 64.40625 C22.30076771 60.15194623 22.30076771 60.15194623 15 57 C14.46632813 57.65226562 13.93265625 58.30453125 13.3828125 58.9765625 C6.70565781 66.80893426 -1.27872074 74.03537528 -11.98657227 75.21972656 C-24.9875841 75.92240416 -35.62771634 74.61018185 -45.9296875 65.98828125 C-51.34087739 60.791497 -55.61844159 55.14467524 -58 48 C-58 46.68 -58 45.36 -58 44 C-75.15446167 45.52199961 -91.96919474 47.85323184 -108.88818359 51.01806641 C-109.59184555 51.14853867 -110.29550751 51.27901093 -111.02049255 51.41343689 C-112.93313068 51.76960522 -114.84442579 52.13296438 -116.75561523 52.49682617 C-119.57859477 52.93464398 -122.15259954 53.10396393 -125 53 C-125 53.66 -125 54.32 -125 55 C-124.46761719 55.21527344 -123.93523437 55.43054687 -123.38671875 55.65234375 C-120.1109236 57.50201532 -117.53026059 59.99603497 -114.8125 62.5625 C-114.23661133 63.10189209 -113.66072266 63.64128418 -113.06738281 64.19702148 C-111.37195149 65.79151176 -109.68463491 67.39411521 -108 69 C-106.74509766 70.19109375 -106.74509766 70.19109375 -105.46484375 71.40625 C-99.82423094 76.89764025 -94.82848475 82.78740266 -90 89 C-89.57992676 89.53834473 -89.15985352 90.07668945 -88.72705078 90.63134766 C-57.30729119 131.20792261 -40.45108868 180.33799215 -40.6875 231.625 C-40.69023422 232.86574783 -40.69023422 232.86574783 -40.69302368 234.13156128 C-40.89857722 289.77497068 -61.29625588 342.27378232 -98 384 C-98.79664063 384.90878906 -99.59328125 385.81757813 -100.4140625 386.75390625 C-108.35358931 395.68928436 -116.62704489 403.57354483 -126 411 C-126.95390625 411.78246094 -127.9078125 412.56492187 -128.890625 413.37109375 C-136.7737058 419.6876649 -145.13780263 424.83149394 -153.84375 429.9375 C-157.91277049 432.33032697 -161.89168304 434.83285946 -165.85083008 437.40234375 C-178.15422232 445.36950016 -190.99877392 452.24748244 -204 459 C-205.12615723 459.58571777 -206.25231445 460.17143555 -207.41259766 460.77490234 C-260.34612894 488.14493187 -316.77002137 508.81161263 -375.625 518.8125 C-376.77250732 519.00755127 -377.92001465 519.20260254 -379.10229492 519.40356445 C-395.53224987 522.04949099 -411.82909215 523.34026358 -428.46435547 523.26074219 C-431.13141436 523.2499741 -433.79780429 523.26074893 -436.46484375 523.2734375 C-451.52422646 523.2869332 -466.37619549 522.25919247 -481.0625 518.75 C-481.98458252 518.53239014 -482.90666504 518.31478027 -483.85668945 518.09057617 C-503.47213465 513.3084314 -522.83494859 505.68485302 -538 492 C-539.12728516 491.08347656 -539.12728516 491.08347656 -540.27734375 490.1484375 C-558.23411199 475.23050696 -568.01023557 452.57965041 -570.71875 429.765625 C-575.83830738 361.22044009 -535.53250733 297.8553543 -492.52734375 247.89453125 C-489.47625106 244.40015771 -486.39161959 240.93923644 -483.265625 237.51171875 C-481.41730937 235.4626378 -479.60989686 233.38923886 -477.80737305 231.30029297 C-474.28707662 227.27527604 -470.60265903 223.45742194 -466.81640625 219.68359375 C-466.15720688 219.02343765 -465.49800751 218.36328156 -464.8188324 217.68312073 C-463.43603165 216.29964494 -462.05198924 214.91740917 -460.66674805 213.53637695 C-458.56769657 211.44268331 -456.4740406 209.34370126 -454.38085938 207.24414062 C-453.02636214 205.89030429 -451.67155469 204.53677825 -450.31640625 203.18359375 C-449.70156876 202.56673203 -449.08673126 201.9498703 -448.45326233 201.3143158 C-444.67585226 197.5568356 -440.7792348 193.98726755 -436.74493408 190.50682068 C-434.52153512 188.58682636 -432.35559783 186.6070439 -430.1875 184.625 C-425.92254692 180.78071755 -421.5513915 177.10473095 -417.0859375 173.49609375 C-414.85060183 171.68801844 -412.62811795 169.86887237 -410.4140625 168.03515625 C-381.84907585 144.45834037 -350.93093022 123.71620881 -319 105 C-318.17983398 104.51708496 -317.35966797 104.03416992 -316.51464844 103.53662109 C-301.63226997 94.8002974 -286.40682044 86.76955797 -271 79 C-269.96891113 78.47905762 -268.93782227 77.95811523 -267.87548828 77.42138672 C-207.92375751 47.34400655 -136.20877726 21.39699075 -68.3125 21.9375 C-67.21744141 21.94201172 -66.12238281 21.94652344 -64.99414062 21.95117188 C-62.32936691 21.96280844 -59.66471483 21.97915436 -57 22 C-56.58621094 20.63681641 -56.58621094 20.63681641 -56.1640625 19.24609375 C-52.6653498 9.4896164 -44.03489576 2.08683063 -34.859375 -2.2734375 C-24.43861341 -6.34541577 -9.58483532 -5.59925471 0 0 Z M-146.63671875 59.41015625 C-147.49607529 59.68832184 -148.35543182 59.96648743 -149.24082947 60.25308228 C-152.06216542 61.17292821 -154.87491436 62.11626299 -157.6875 63.0625 C-159.64175912 63.71005802 -161.59602349 64.3576002 -163.55029297 65.00512695 C-180.62612346 70.70808223 -197.39862241 77.04263221 -214 84 C-215.10891602 84.46470703 -216.21783203 84.92941406 -217.36035156 85.40820312 C-264.07178282 105.16143995 -310.32386812 129.15329148 -350 161 C-351.14166411 161.89003202 -352.284964 162.7779688 -353.4296875 163.6640625 C-364.12746991 171.95961312 -374.4848199 180.6109309 -384.48828125 189.734375 C-385.84868779 190.96149132 -387.21523207 192.18251549 -388.61254883 193.36743164 C-394.82665409 198.66671643 -400.5671636 204.4155822 -406.32739258 210.19702148 C-408.058947 211.933936 -409.79578359 213.66543889 -411.53320312 215.39648438 C-417.23598346 221.09553641 -422.79515043 226.83624723 -428 233 C-428.94873204 234.08360002 -429.8992058 235.165678 -430.8515625 236.24609375 C-438.07034525 244.52297911 -444.80967737 253.10116737 -451.40185547 261.8828125 C-452.94204484 263.92322225 -454.50084905 265.94776712 -456.06640625 267.96875 C-483.68498121 303.81909503 -509.43286217 349.56331545 -503.50390625 396.453125 C-499.95083152 420.15812661 -488.97905417 441.07265402 -470 456 C-421.56075735 490.80100928 -360.94925029 486.49767475 -305.13452148 477.39730835 C-275.8990594 472.51268363 -246.11400117 466.53724392 -218 457 C-221.35931815 455.90277963 -223.77837493 456.11387914 -227.234375 456.7421875 C-228.27126465 456.92112549 -229.3081543 457.10006348 -230.37646484 457.28442383 C-231.48973145 457.47931396 -232.60299805 457.6742041 -233.75 457.875 C-283.01621812 465.93493405 -334.0028772 457.69761464 -378 434 C-378.66338379 433.64824707 -379.32676758 433.29649414 -380.01025391 432.93408203 C-409.89308608 417.02374425 -437.37145001 393.58580218 -456.15625 365.28442383 C-456.69056641 364.48023514 -457.22488281 363.67604645 -457.77539062 362.8474884 C-458.38157227 361.93298164 -458.38157227 361.93298164 -459 361 C-451.36801345 360.86336449 -443.73890564 360.81387375 -436.10571289 360.82299805 C-433.51313686 360.81605177 -430.92053318 360.7896566 -428.32836914 360.74291992 C-404.39801909 360.33357894 -404.39801909 360.33357894 -398.45899963 365.76263428 C-396.4335123 368.03951542 -394.70824234 370.48020142 -393 373 C-369.02850674 395.68536279 -330.13975929 415.18081494 -297 416 C-300.97756714 411.74999676 -305.31060519 408.46846571 -310.0625 405.125 C-316.7541038 400.35607353 -323.37586732 395.50877381 -329.9375 390.5625 C-338.79505881 383.89278562 -347.7057287 377.29884803 -356.64111328 370.73388672 C-361.37908081 367.25126972 -366.11131085 363.76085916 -370.84448242 360.27172852 C-374.97477344 357.22752087 -379.10700603 354.18599964 -383.2421875 351.1484375 C-384.10134766 350.51679688 -384.96050781 349.88515625 -385.84570312 349.234375 C-387.48700568 348.02779583 -389.12889811 346.8220185 -390.77148438 345.6171875 C-393.87626053 343.33370946 -396.93725506 341.05164262 -399.9140625 338.6015625 C-401.82608277 336.79700244 -401.82608277 336.79700244 -404 337 C-404 336.34 -404 335.68 -404 335 C-380.57 335 -357.14 335 -333 335 C-332.34 336.32 -331.68 337.64 -331 339 C-330.10669099 340.32441006 -329.18236338 341.62822386 -328.234375 342.9140625 C-327.68144775 343.66550537 -327.12852051 344.41694824 -326.55883789 345.19116211 C-325.66346313 346.39591187 -325.66346313 346.39591187 -324.75 347.625 C-324.12665771 348.46748291 -323.50331543 349.30996582 -322.86108398 350.17797852 C-318.10636615 356.57674504 -313.24050152 362.88246999 -308.32324219 369.15673828 C-303.97372343 374.71633716 -299.72048393 380.34196656 -295.5 386 C-288.9125756 394.82943892 -282.187409 403.54418379 -275.38769531 412.2109375 C-274.37100313 413.52169054 -273.39671586 414.86563112 -272.44824219 416.2265625 C-271.97032227 416.81179688 -271.49240234 417.39703125 -271 418 C-270.34 418 -269.68 418 -269 418 C-267.08578622 415.64054978 -265.28169314 413.26940488 -263.5 410.8125 C-262.40171757 409.32241825 -261.30275108 407.83284046 -260.203125 406.34375 C-259.65720703 405.60125 -259.11128906 404.85875 -258.54882812 404.09375 C-256.48525604 401.30415444 -254.37333831 398.55695088 -252.25 395.8125 C-246.54441202 388.42611458 -240.89501391 380.99710778 -235.2421875 373.5703125 C-232.39727728 369.8328298 -229.54805558 366.09869469 -226.6953125 362.3671875 C-225.99229004 361.44679688 -225.28926758 360.52640625 -224.56494141 359.578125 C-223.23747363 357.84039466 -221.90909822 356.1033571 -220.57958984 354.3671875 C-219.65847412 353.160625 -219.65847412 353.160625 -218.71875 351.9296875 C-218.13332428 351.18442307 -217.54789856 350.43915863 -216.94473267 349.67131042 C-214.94466767 347.04701548 -214.94466767 347.04701548 -213.45263672 344.15010071 C-210.79161063 339.56862761 -208.82720759 336.5153562 -203.58215332 335.03601074 C-199.31356729 334.72558989 -195.17682277 334.75973694 -190.90625 334.92578125 C-189.34832275 334.94632664 -187.79032387 334.96197106 -186.2322998 334.97294617 C-182.15327853 335.01472775 -178.07864355 335.12255697 -174.00134277 335.24468994 C-169.83222804 335.3577124 -165.66239625 335.40755927 -161.4921875 335.46289062 C-153.32612331 335.58047169 -145.16360885 335.76791184 -137 336 C-155.0837094 349.87580015 -155.0837094 349.87580015 -163.375 355.9375 C-164.97659481 357.11323723 -166.57815633 358.28901982 -168.1796875 359.46484375 C-168.97600586 360.04862793 -169.77232422 360.63241211 -170.59277344 361.23388672 C-174.56665138 364.14940731 -178.53296477 367.07517969 -182.5 370 C-184.08329651 371.16671664 -185.66662986 372.33338329 -187.25 373.5 C-188.425625 374.36625 -188.425625 374.36625 -189.625 375.25 C-192 377 -194.375 378.75 -196.75 380.5 C-197.53415283 381.07782227 -198.31830566 381.65564453 -199.1262207 382.25097656 C-200.7053868 383.41452134 -202.28465072 384.57793338 -203.86401367 385.74121094 C-207.88692899 388.70454688 -211.90797964 391.67035854 -215.92578125 394.640625 C-217.55457754 395.84389886 -219.18348248 397.04702566 -220.8125 398.25 C-221.98679565 399.11757935 -221.98679565 399.11757935 -223.18481445 400.00268555 C-228.73716516 404.09502769 -234.33200333 408.12342035 -239.98950195 412.06933594 C-241.34335571 413.0224948 -242.67464047 414.00760192 -244 415 C-244 415.33 -244 415.66 -244 416 C-208.18388533 415.11465784 -170.36627726 394.03362863 -145 370 C-143.48540552 368.65958388 -141.96494314 367.32575611 -140.4375 366 C-138.17115131 364.05096207 -138.17115131 364.05096207 -136 362 C-133.81128325 362.01792824 -131.62226692 362.04559299 -129.43470764 362.11898804 C-125.51531578 362.24743119 -121.59619302 362.2803242 -117.67504883 362.32128906 C-115.61553652 362.35682853 -113.55628968 362.41732962 -111.49829102 362.50390625 C-100.29328913 363.34899551 -100.29328913 363.34899551 -90.13375854 359.61413574 C-86.91758308 356.12619093 -84.81433644 352.14760403 -82.85745239 347.8538208 C-81.73847477 345.4345798 -80.35142861 343.2229899 -78.93359375 340.96875 C-62.28541748 311.68284655 -50.99257638 277.02713595 -50.796875 243.109375 C-50.78986069 242.29082535 -50.78284637 241.4722757 -50.77561951 240.62892151 C-50.75821731 238.00255768 -50.75176738 235.37641937 -50.75 232.75 C-50.74932526 231.85227875 -50.74865051 230.9545575 -50.74795532 230.02963257 C-50.7637772 216.79204583 -51.18961344 203.98105048 -54 191 C-54.17692383 190.14535156 -54.35384766 189.29070312 -54.53613281 188.41015625 C-65.05700464 138.3315332 -92.4774233 89.9294154 -134 59 C-138.55574613 56.21626608 -141.85983571 57.79709845 -146.63671875 59.41015625 Z M-218 455 C-214 456 -214 456 -214 456 Z " fill="#346EFE" transform="translate(600,4)"/>
<path d="M0 0 C11.17884034 -0.19023052 22.17688343 0.90354034 33.27734375 2.12109375 C33.27734375 2.78109375 33.27734375 3.44109375 33.27734375 4.12109375 C32.30015381 4.52666504 32.30015381 4.52666504 31.30322266 4.94042969 C-2.00116728 18.80128341 -34.51493505 33.98197784 -65.72265625 52.12109375 C-66.64288574 52.65347656 -67.56311523 53.18585937 -68.51123047 53.734375 C-120.14739921 83.66205398 -168.26238631 119.20549293 -211.72265625 160.12109375 C-212.71265625 159.79109375 -213.70265625 159.46109375 -214.72265625 159.12109375 C-205.75746098 133.37858772 -193.96330541 109.42016121 -176.72265625 88.12109375 C-175.55283203 86.64769531 -175.55283203 86.64769531 -174.359375 85.14453125 C-162.9880369 71.09719551 -150.01361424 58.00499736 -135.39941406 47.34472656 C-133.68939112 46.09681815 -131.99900476 44.82509109 -130.30859375 43.55078125 C-121.87020461 37.2715497 -113.0071368 32.04410105 -103.72265625 27.12109375 C-103.08634277 26.77836426 -102.4500293 26.43563477 -101.79443359 26.08251953 C-70.45145252 9.28962713 -35.41898454 1.15213906 0 0 Z " fill="#346EFE" transform="translate(325.72265625,5.87890625)"/>
<path d="M0 0 C3.41621005 1.51831558 6.18609307 3.63552808 9.05859375 5.984375 C9.66848145 6.47325195 10.27836914 6.96212891 10.90673828 7.46582031 C16.06344494 11.64736766 20.97197597 16.07263438 25.8125 20.61328125 C28.09894348 22.73997322 30.42596459 24.78010061 32.80859375 26.796875 C36.069219 29.62811751 38.88456968 32.67911225 41.66796875 35.9765625 C42.91357223 37.42976656 44.19708433 38.85112085 45.51171875 40.2421875 C50.49609961 45.53136863 54.84504605 51.13820045 59.05859375 57.046875 C59.59572998 57.79316162 60.13286621 58.53944824 60.6862793 59.30834961 C61.42938354 60.36807983 61.42938354 60.36807983 62.1875 61.44921875 C62.63295166 62.08206787 63.07840332 62.71491699 63.53735352 63.36694336 C64.49609375 65.109375 64.49609375 65.109375 64.49609375 68.109375 C63.84350586 68.28476807 63.19091797 68.46016113 62.51855469 68.64086914 C43.64396284 73.7429589 24.97680429 78.99325378 7.40454102 87.70874023 C6.71545654 88.03688721 6.02637207 88.36503418 5.31640625 88.703125 C4.72102051 88.99896484 4.12563477 89.29480469 3.51220703 89.59960938 C-1.24733544 90.80303934 -5.75105558 88.7627528 -10.08203125 86.88671875 C-11.14824707 86.43417725 -12.21446289 85.98163574 -13.31298828 85.51538086 C-14.44849121 85.03077393 -15.58399414 84.54616699 -16.75390625 84.046875 C-32.8714494 77.31675036 -49.38273505 71.68666753 -66.50390625 68.109375 C-65.658204 64.13510297 -63.9891973 61.7872458 -61.50390625 58.546875 C-61.10018799 58.0202124 -60.69646973 57.4935498 -60.28051758 56.95092773 C-59.03072413 55.32976432 -57.76954177 53.71819151 -56.50390625 52.109375 C-55.78589844 51.19414062 -55.06789063 50.27890625 -54.328125 49.3359375 C-48.39593103 41.93967373 -42.02322479 34.98594846 -35.50390625 28.109375 C-34.79234375 27.35527344 -34.08078125 26.60117188 -33.34765625 25.82421875 C-29.03734026 21.38141354 -24.42029093 17.42485077 -19.58203125 13.56640625 C-17.31473297 11.75659582 -15.08358949 9.92418853 -12.86328125 8.05859375 C-11.61889695 7.03335953 -10.37411028 6.00861346 -9.12890625 4.984375 C-8.25468018 4.23740356 -8.25468018 4.23740356 -7.36279297 3.4753418 C-4.91207955 1.48885888 -3.20980803 0.14021002 0 0 Z " fill="#336DFE" transform="translate(330.50390625,200.890625)"/>
<path d="M0 0 C2.41430664 -0.35644531 2.41430664 -0.35644531 5.41015625 -0.328125 C7.01793945 -0.32039062 7.01793945 -0.32039062 8.65820312 -0.3125 C10.34333008 -0.2815625 10.34333008 -0.2815625 12.0625 -0.25 C13.75342773 -0.24226562 13.75342773 -0.24226562 15.47851562 -0.234375 C23.8462291 -0.1537709 23.8462291 -0.1537709 25 1 C25.09658551 2.53888502 25.12515642 4.0821106 25.12597656 5.62402344 C25.13168671 7.10125885 25.13168671 7.10125885 25.13751221 8.6083374 C25.13853943 9.68117981 25.13956665 10.75402222 25.140625 11.859375 C25.15895508 14.11198926 25.17852558 16.36459371 25.19921875 18.6171875 C25.22819268 22.18343581 25.24999987 25.74905604 25.25048828 29.31542969 C25.25382021 32.7473174 25.28836325 36.17774103 25.328125 39.609375 C25.3210553 40.67412048 25.3139856 41.73886597 25.30670166 42.83587646 C25.38480763 48.9594183 25.38480763 48.9594183 28.41088867 54.17700195 C32.37448322 56.96777616 34.23971236 56.52892085 39 56 C41.38883469 55.47462432 41.38883469 55.47462432 43 54 C44.62770147 50.58387097 45.25666489 47.80998025 45.30297852 44.04199219 C45.31962051 43.08460144 45.33626251 42.12721069 45.35340881 41.14080811 C45.36182297 40.11981018 45.37023712 39.09881226 45.37890625 38.046875 C45.39590073 36.99091125 45.4128952 35.93494751 45.43040466 34.84698486 C45.48345417 31.48138361 45.52381547 28.11579464 45.5625 24.75 C45.60638074 21.36998397 45.65299976 17.99006485 45.70530701 14.61016846 C45.7373506 12.50798833 45.76421336 10.40572195 45.78553772 8.30340576 C45.79902756 7.35862366 45.8125174 6.41384155 45.82641602 5.44042969 C45.84068382 4.18730988 45.84068382 4.18730988 45.85523987 2.90887451 C46 1 46 1 47 0 C50.97275815 -0.25256877 54.95766175 -0.18522451 58.9375 -0.1875 C60.06091797 -0.19974609 61.18433594 -0.21199219 62.34179688 -0.22460938 C63.94958008 -0.22750977 63.94958008 -0.22750977 65.58984375 -0.23046875 C67.07278931 -0.23663208 67.07278931 -0.23663208 68.58569336 -0.24291992 C71 0 71 0 73 2 C73.26069641 3.94406128 73.26069641 3.94406128 73.2746582 6.35107422 C73.28419022 7.2531662 73.29372223 8.15525818 73.30354309 9.08468628 C73.30263168 10.06478668 73.30172028 11.04488708 73.30078125 12.0546875 C73.30506638 13.06661163 73.3093515 14.07853577 73.31376648 15.12112427 C73.31952144 17.27149711 73.32000151 19.42188943 73.31567383 21.57226562 C73.31254596 24.82717365 73.33584593 28.08114412 73.36132812 31.3359375 C73.44635229 58.15563376 73.44635229 58.15563376 64.89453125 68.09375 C57.36848168 75.66635246 50.16024392 77.27299302 39.60351562 77.37109375 C37.66508789 77.37302734 37.66508789 77.37302734 35.6875 77.375 C34.40681641 77.39949219 33.12613281 77.42398438 31.80664062 77.44921875 C21.46999422 77.4811384 14.16970886 75.63638687 6.5 68.5703125 C-1.86717414 59.81092707 -2.15439847 49.02604105 -2.16796875 37.578125 C-2.17129715 36.59632263 -2.17462555 35.61452026 -2.17805481 34.60296631 C-2.18309567 32.53886379 -2.18546402 30.4747532 -2.18530273 28.41064453 C-2.18750258 25.24628511 -2.20572463 22.08226721 -2.22460938 18.91796875 C-2.22754117 16.90885536 -2.2295274 14.89974031 -2.23046875 12.890625 C-2.23765427 11.94374817 -2.24483978 10.99687134 -2.25224304 10.02130127 C-2.24916641 9.14318787 -2.24608978 8.26507446 -2.24291992 7.36035156 C-2.24434494 6.58870667 -2.24576996 5.81706177 -2.24723816 5.02203369 C-2 3 -2 3 0 0 Z " fill="#090AFC" transform="translate(261,594)"/>
<path d="M0 0 C0 0.66 0 1.32 0 2 C-0.96897217 2.3309668 -1.93794434 2.66193359 -2.9362793 3.00292969 C-51.6660912 19.69144439 -99.18363986 39.85126413 -143.39746094 66.44238281 C-145.80858418 67.88543781 -148.23155854 69.30430196 -150.6640625 70.7109375 C-192.46893399 94.89720341 -231.82190103 124.24321515 -267.51196289 156.74755859 C-269.02780486 158.11986337 -270.55150714 159.48363231 -272.08886719 160.83178711 C-279.65887113 167.50199514 -286.76814086 174.61612533 -293.88916016 181.75878906 C-296.02001163 183.89506255 -298.15623752 186.02585921 -300.29296875 188.15625 C-301.6539671 189.51790813 -303.01465576 190.87987589 -304.375 192.2421875 C-305.01139404 192.87655731 -305.64778809 193.51092712 -306.3034668 194.16452026 C-306.89168213 194.75588776 -307.47989746 195.34725525 -308.0859375 195.95654297 C-308.6020459 196.47344696 -309.1181543 196.99035095 -309.64990234 197.5229187 C-311.22041941 199.16604924 -311.22041941 199.16604924 -313 202 C-313.99 201.67 -314.98 201.34 -316 201 C-315.91213297 199.26992849 -315.80394326 197.54088335 -315.6875 195.8125 C-315.62949219 194.84957031 -315.57148438 193.88664063 -315.51171875 192.89453125 C-314.36707102 186.41984449 -309.69717339 182.416095 -305.20703125 177.9765625 C-304.20974251 176.97996109 -304.20974251 176.97996109 -303.19230652 175.96322632 C-301.78673965 174.56067354 -300.3787501 173.16054499 -298.96850586 171.76269531 C-296.83200182 169.6443362 -294.70349747 167.51819707 -292.57617188 165.390625 C-291.20359352 164.02296714 -289.83056082 162.65576506 -288.45703125 161.2890625 C-287.82964554 160.66278961 -287.20225983 160.03651672 -286.55586243 159.39126587 C-282.73778393 155.6130965 -278.80673976 152.01245511 -274.73999023 148.50311279 C-272.51851772 146.58406538 -270.35406598 144.6056435 -268.1875 142.625 C-263.92119411 138.77949818 -259.548307 135.10268734 -255.08203125 131.4921875 C-252.86080631 129.69606391 -250.65099623 127.88991464 -248.44921875 126.0703125 C-232.53962406 112.96266358 -215.99640406 100.66150959 -199 89 C-198.13487793 88.40638672 -197.26975586 87.81277344 -196.37841797 87.20117188 C-168.2886612 68.01888307 -139.09603787 51.0214043 -108.85546875 35.47167969 C-106.18995529 34.09790104 -103.53236421 32.70976379 -100.875 31.3203125 C-78.9812165 19.99586919 -56.10322254 10.43953812 -33.02578735 1.80636597 C-31.60881794 1.27512055 -30.19400448 0.73808323 -28.78158569 0.19485474 C-18.04147764 -3.9148172 -10.6138412 -5.1940074 0 0 Z " fill="#4075FD" transform="translate(416,23)"/>
<path d="M0 0 C5.35838665 1.24544319 10.28637226 3.91221274 15.19140625 6.328125 C16.17302734 6.79798828 17.15464844 7.26785156 18.16601562 7.75195312 C32.56027733 14.7347419 32.56027733 14.7347419 36.87890625 18.140625 C36.87890625 19.130625 36.87890625 20.120625 36.87890625 21.140625 C35 22.7265625 35 22.7265625 32.31640625 24.515625 C15.55978717 36.28822404 0.38662976 50.94880839 -12.12109375 67.140625 C-12.9619193 68.21379269 -13.80307904 69.2866986 -14.64453125 70.359375 C-19.20078618 76.2010562 -23.58024257 82.11524974 -27.6484375 88.3125 C-29.12109375 90.140625 -29.12109375 90.140625 -32.12109375 91.140625 C-34.20581055 90.97875977 -34.20581055 90.97875977 -36.5703125 90.58203125 C-37.41787109 90.44345703 -38.26542969 90.30488281 -39.13867188 90.16210938 C-40.01974609 90.01064453 -40.90082031 89.85917969 -41.80859375 89.703125 C-42.70126953 89.55552734 -43.59394531 89.40792969 -44.51367188 89.25585938 C-46.71730512 88.89055119 -48.91959975 88.51857612 -51.12109375 88.140625 C-50.54375177 81.81909576 -49.09606941 76.20529776 -47.05859375 70.203125 C-46.74768799 69.2850708 -46.43678223 68.3670166 -46.11645508 67.42114258 C-39.23365176 47.61314469 -28.96458836 29.91271273 -15.52978516 13.82958984 C-14.56980814 12.67861567 -13.61929478 11.51969756 -12.67724609 10.35400391 C-11.26603469 8.61504566 -9.82487183 6.90656214 -8.37109375 5.203125 C-7.530625 4.20410156 -6.69015625 3.20507812 -5.82421875 2.17578125 C-3.12109375 0.140625 -3.12109375 0.140625 0 0 Z " fill="#356EFE" transform="translate(282.12109375,174.859375)"/>
<path d="M0 0 C25.1086768 20.2103635 41.59492597 55.01647355 48 86 C43.02322102 87.5402775 38.22960352 88.50636739 33.0625 89.125 C32.37865234 89.21136719 31.69480469 89.29773438 30.99023438 89.38671875 C29.32742954 89.59602285 27.66379487 89.79871722 26 90 C25.51756836 89.30608154 25.51756836 89.30608154 25.02539062 88.59814453 C16.93558284 76.98563514 8.70159124 65.81740197 -0.86328125 55.359375 C-2.71171979 53.31832038 -4.48334885 51.23625718 -6.25 49.125 C-13.96875795 40.30609723 -23.03059006 32.73864758 -32.33032227 25.65307617 C-35.44172038 23.27697564 -38.30712032 20.84431301 -41 18 C-34.37409097 13.23313546 -27.40794885 9.47629054 -20.06005859 5.93823242 C-18.23164376 5.05361899 -16.41495616 4.1474223 -14.59765625 3.24023438 C-13.43621094 2.67755859 -12.27476562 2.11488281 -11.078125 1.53515625 C-9.50659668 0.76764038 -9.50659668 0.76764038 -7.90332031 -0.01538086 C-4.68293217 -1.10752897 -3.18404527 -1.09864058 0 0 Z " fill="#356FFE" transform="translate(381,176)"/>
<path d="M0 0 C1.30130859 0.26490234 1.30130859 0.26490234 2.62890625 0.53515625 C4.41927083 1.0234375 6.20963542 1.51171875 8 2 C8 2.66 8 3.32 8 4 C6.99026123 4.39155273 5.98052246 4.78310547 4.94018555 5.18652344 C-15.93864043 13.2961458 -36.68626932 21.54243962 -57 31 C-58.12438477 31.52303711 -59.24876953 32.04607422 -60.40722656 32.58496094 C-111.97337939 56.70905323 -159.99648554 87.23542904 -205 122 C-206.02383789 122.78769775 -206.02383789 122.78769775 -207.06835938 123.59130859 C-215.34477464 129.96586366 -223.33646207 136.61738755 -231.22363281 143.46630859 C-233.04318503 145.03728537 -234.87498106 146.59276817 -236.7109375 148.14453125 C-242.43359845 152.98887959 -248.0101866 157.84165256 -253.234375 163.23046875 C-254.96369618 164.96361586 -256.75697668 166.54345925 -258.625 168.125 C-263.46494497 172.2665962 -267.88292076 176.83310089 -272.34033203 181.37744141 C-272.9279834 181.97347168 -273.51563477 182.56950195 -274.12109375 183.18359375 C-274.6514624 183.72556396 -275.18183105 184.26753418 -275.72827148 184.82592773 C-277 186 -277 186 -278 186 C-277.29508113 172.55792642 -273.84436715 167.07573789 -264 158 C-262.1030307 156.29797616 -260.18722422 154.62476425 -258.25 152.96875 C-255.91107894 150.92219407 -253.63925327 148.81591566 -251.3684082 146.69458008 C-245.99362714 141.6757758 -240.5273361 136.86722076 -234.7890625 132.26171875 C-232.3131672 130.25395491 -229.88601604 128.19948333 -227.47021484 126.12011719 C-219.94875797 119.65999842 -212.14238981 113.61573814 -204.21386719 107.66503906 C-202.08588882 106.06459658 -199.96852355 104.45090779 -197.8515625 102.8359375 C-168.86621659 80.92147999 -137.79654653 61.52822242 -106 44 C-104.94490234 43.41492676 -103.88980469 42.82985352 -102.80273438 42.22705078 C-78.29591 28.68131497 -53.14680937 16.5300587 -27.2427063 5.88650513 C-25.72331095 5.2610019 -24.20636089 4.62952068 -22.69210815 3.9916687 C-8.28166173 -2.04907094 -8.28166173 -2.04907094 0 0 Z " fill="#4075FD" transform="translate(382,12)"/>
<path d="M0 0 C0.68128967 -0.00175232 1.36257935 -0.00350464 2.06451416 -0.00531006 C4.32688917 -0.00972789 6.58918663 -0.00679084 8.8515625 -0.00341797 C10.4171551 -0.00409103 11.9827476 -0.00506107 13.54833984 -0.00631714 C16.83366895 -0.00779402 20.11897092 -0.00563988 23.40429688 -0.00097656 C27.62476766 0.00472073 31.84517486 0.00144167 36.06564331 -0.00454903 C39.29972822 -0.00815491 42.53379795 -0.00701593 45.7678833 -0.00442123 C47.32448331 -0.00375204 48.88108468 -0.00458012 50.43768311 -0.00690079 C52.60953446 -0.00942777 54.78128146 -0.00558612 56.953125 0 C58.19143066 0.00079559 59.42973633 0.00159119 60.70556641 0.00241089 C63.4765625 0.12939453 63.4765625 0.12939453 64.4765625 1.12939453 C64.57537047 2.60592117 64.60735495 4.08706689 64.609375 5.56689453 C64.61066406 6.46150391 64.61195313 7.35611328 64.61328125 8.27783203 C64.60941406 9.21884766 64.60554688 10.15986328 64.6015625 11.12939453 C64.60542969 12.07041016 64.60929687 13.01142578 64.61328125 13.98095703 C64.61199219 14.87556641 64.61070312 15.77017578 64.609375 16.69189453 C64.60824707 17.51818359 64.60711914 18.34447266 64.60595703 19.19580078 C64.4765625 21.12939453 64.4765625 21.12939453 63.4765625 22.12939453 C61.84183368 22.21639795 60.20342195 22.23640516 58.56640625 22.22705078 C57.57705078 22.22382812 56.58769531 22.22060547 55.56835938 22.21728516 C54.52744141 22.20890625 53.48652344 22.20052734 52.4140625 22.19189453 C51.36927734 22.18738281 50.32449219 22.18287109 49.24804688 22.17822266 C46.6574959 22.16639366 44.06705691 22.14991142 41.4765625 22.12939453 C41.47878311 22.80369003 41.48100372 23.47798553 41.48329163 24.17271423 C41.50534179 31.16372144 41.52046797 38.15471884 41.53149414 45.14575195 C41.53653627 47.75806072 41.54336975 50.37036665 41.55200195 52.98266602 C41.56407286 56.72819721 41.56979185 60.47369125 41.57421875 64.21923828 C41.57938004 65.39526108 41.58454132 66.57128387 41.58985901 67.78294373 C41.58993454 68.8639888 41.59001007 69.94503387 41.59008789 71.05883789 C41.5923085 72.01592148 41.59452911 72.97300507 41.59681702 73.95909119 C41.4765625 76.12939453 41.4765625 76.12939453 40.4765625 77.12939453 C36.50380435 77.3819633 32.51890075 77.31461904 28.5390625 77.31689453 C26.85393555 77.33526367 26.85393555 77.33526367 25.13476562 77.35400391 C24.06291016 77.3559375 22.99105469 77.35787109 21.88671875 77.35986328 C20.40377319 77.36602661 20.40377319 77.36602661 18.89086914 77.37231445 C16.4765625 77.12939453 16.4765625 77.12939453 14.4765625 75.12939453 C14.23605347 72.87680054 14.23605347 72.87680054 14.24951172 70.03710938 C14.24966278 68.97616058 14.24981384 67.91521179 14.24996948 66.82211304 C14.26545334 65.09863144 14.26545334 65.09863144 14.28125 63.34033203 C14.2840799 62.16677155 14.28690979 60.99321106 14.28982544 59.78408813 C14.30104895 56.02408791 14.32615758 52.26432314 14.3515625 48.50439453 C14.36158949 45.96012713 14.37071582 43.41585601 14.37890625 40.87158203 C14.4009954 34.62409504 14.43554014 28.37678474 14.4765625 22.12939453 C7.2165625 22.12939453 -0.0434375 22.12939453 -7.5234375 22.12939453 C-7.5440625 18.68501953 -7.5646875 15.24064453 -7.5859375 11.69189453 C-7.5950415 10.60465088 -7.60414551 9.51740723 -7.61352539 8.3972168 C-7.61602295 7.54699951 -7.61852051 6.69678223 -7.62109375 5.82080078 C-7.62633057 4.94625244 -7.63156738 4.0717041 -7.63696289 3.1706543 C-7.38761293 -1.3128189 -3.69636052 0.00237486 0 0 Z " fill="#0708FC" transform="translate(391.5234375,593.87060546875)"/>
<path d="M0 0 C1.51013672 -0.00290039 1.51013672 -0.00290039 3.05078125 -0.00585938 C4.63246094 0.0009082 4.63246094 0.0009082 6.24609375 0.0078125 C7.85677734 0.01071289 7.85677734 0.01071289 9.5 0.01367188 C16.60747136 0.05248695 23.62255229 0.26566706 30.68359375 1.1328125 C30.61140625 1.92558594 30.53921875 2.71835937 30.46484375 3.53515625 C29.8005474 11.88499226 29.57382464 20.19395959 29.55859375 28.5703125 C29.55408203 29.56861084 29.54957031 30.56690918 29.54492188 31.59545898 C29.56141707 40.13515693 30.08680704 48.6180664 30.68359375 57.1328125 C25.66686998 57.38086289 20.65373874 57.56181516 15.63232422 57.68212891 C13.92661365 57.73228735 12.22133039 57.80043974 10.51708984 57.88720703 C-3.62270172 58.58883125 -3.62270172 58.58883125 -7.72241211 55.06445312 C-9.31739837 52.45788735 -10.36930922 50.03212296 -11.31640625 47.1328125 C-11.78691406 46.10671875 -12.25742188 45.080625 -12.7421875 44.0234375 C-17.34517715 30.31585598 -17.27176489 17.33096609 -12.01953125 3.7890625 C-10.31640625 1.1328125 -10.31640625 1.1328125 -8.04223633 0.47509766 C-5.33004606 0.13452526 -2.73291578 0.00341401 0 0 Z " fill="#346DFE" transform="translate(187.31640625,270.8671875)"/>
<path d="M0 0 C1.49768921 -0.00676758 1.49768921 -0.00676758 3.02563477 -0.01367188 C13.65719005 0.00777893 13.65719005 0.00777893 17.125 1.125 C18.55078125 3.234375 18.55078125 3.234375 19.4375 5.875 C19.74300781 6.73609375 20.04851562 7.5971875 20.36328125 8.484375 C24.26965304 22.02646387 23.10630359 36.62201434 16.55859375 49.11328125 C12.89447774 55.35552226 12.89447774 55.35552226 11.125 57.125 C8.53140678 57.21351529 5.96460309 57.24025945 3.37109375 57.22265625 C2.59564713 57.2212413 1.8202005 57.21982635 1.02125549 57.21836853 C-1.46503494 57.21275345 -3.9512366 57.20019846 -6.4375 57.1875 C-8.11913933 57.18248694 -9.80078006 57.1779237 -11.48242188 57.17382812 C-15.61331566 57.16277913 -19.74414276 57.14550445 -23.875 57.125 C-23.83947021 56.24577881 -23.80394043 55.36655762 -23.76733398 54.46069336 C-23.07065797 36.61578492 -22.70477187 18.96647815 -23.875 1.125 C-15.90302893 0.23120985 -8.01804352 0.01516534 0 0 Z " fill="#346DFE" transform="translate(465.875,270.875)"/>
<path d="M0 0 C7.61704037 1.24386325 14.97362745 2.94363993 22.375 5.125 C23.40069092 5.42559326 24.42638184 5.72618652 25.4831543 6.03588867 C51.05066698 13.70044465 51.05066698 13.70044465 59 19 C59 19.66 59 20.32 59 21 C57.26611328 22.21411133 57.26611328 22.21411133 54.8203125 23.58203125 C53.91909668 24.09588379 53.01788086 24.60973633 52.08935547 25.13916016 C51.11111816 25.6913623 50.13288086 26.24356445 49.125 26.8125 C32.30452029 36.44680852 32.30452029 36.44680852 17.30810547 48.64916992 C13.8473911 50.67457003 10.40883007 50.36940212 6.515625 50.29296875 C5.70003113 50.28872391 4.88443726 50.28447906 4.04412842 50.28010559 C1.44574616 50.26334715 -1.15185319 50.22570097 -3.75 50.1875 C-5.51431169 50.17244946 -7.27863558 50.1587617 -9.04296875 50.14648438 C-13.36227965 50.11345301 -17.6810072 50.06169086 -22 50 C-20.25287958 43.91501362 -18.36852154 37.97194454 -15.9375 32.125 C-15.64657471 31.42101074 -15.35564941 30.71702148 -15.0559082 29.99169922 C-10.76112497 19.82025232 -6.13501043 9.20251565 0 0 Z " fill="#356EFE" transform="translate(257,278)"/>
<path d="M0 0 C5.67520507 8.35172101 9.46551552 18.11255095 13.375 27.375 C13.80377441 28.38449707 14.23254883 29.39399414 14.67431641 30.43408203 C17.077065 36.2526248 18.83408109 41.81166116 20 48 C-16.16269821 50.47108847 -16.16269821 50.47108847 -25.9375 42.3125 C-27.94607827 40.5371441 -29.90547244 38.72429879 -31.84521484 36.87402344 C-35.92502232 33.32580203 -40.61710688 30.69577073 -45.25 27.9375 C-46.98528972 26.88562213 -48.71971864 25.83232235 -50.453125 24.77734375 C-51.23623047 24.30280762 -52.01933594 23.82827148 -52.82617188 23.33935547 C-55.60163079 21.62931868 -58.30619355 19.83548577 -61 18 C-58.37019879 15.90147549 -55.96024591 14.41313571 -52.82421875 13.203125 C-52.00727539 12.88746582 -51.19033203 12.57180664 -50.34863281 12.24658203 C-49.47045898 11.91770996 -48.59228516 11.58883789 -47.6875 11.25 C-46.77194336 10.90437012 -45.85638672 10.55874023 -44.91308594 10.20263672 C-34.43592017 6.3184624 -23.77310623 2.9640511 -13 0 C-12.16533203 -0.23364258 -11.33066406 -0.46728516 -10.47070312 -0.70800781 C-9.68115234 -0.91006836 -8.89160156 -1.11212891 -8.078125 -1.3203125 C-7.04026855 -1.59125732 -7.04026855 -1.59125732 -5.98144531 -1.86767578 C-3.40628584 -2.03964922 -2.146536 -1.39527662 0 0 Z " fill="#356EFE" transform="translate(404,280)"/>
<path d="M0 0 C1.07507813 -0.00128906 2.15015625 -0.00257813 3.2578125 -0.00390625 C4.38960938 -0.00003906 5.52140625 0.00382813 6.6875 0.0078125 C7.81929688 0.00394531 8.95109375 0.00007812 10.1171875 -0.00390625 C11.19226563 -0.00261719 12.26734375 -0.00132812 13.375 0 C14.86580078 0.00169189 14.86580078 0.00169189 16.38671875 0.00341797 C18.6875 0.1328125 18.6875 0.1328125 19.6875 1.1328125 C19.78773555 3.46995575 19.82369203 5.77755575 19.81689453 8.11523438 C19.81864685 8.8452919 19.82039917 9.57534943 19.82220459 10.32752991 C19.82662299 12.75223128 19.82368517 15.17686032 19.8203125 17.6015625 C19.82098554 19.27925633 19.82195557 20.95695006 19.82321167 22.63464355 C19.82468863 26.15536424 19.82253416 29.6760596 19.81787109 33.19677734 C19.8121738 37.71991746 19.81545282 42.24299824 19.82144356 46.76613617 C19.82504923 50.23183645 19.82391056 53.69752257 19.82131577 57.16322327 C19.82064651 58.83146675 19.82147486 60.49971149 19.82379532 62.16795349 C19.82632195 64.49546744 19.82248113 66.82288398 19.81689453 69.15039062 C19.81891876 69.84652969 19.82094299 70.54266876 19.82302856 71.25990295 C19.80176274 76.01854976 19.80176274 76.01854976 18.6875 77.1328125 C16.91890807 77.23227703 15.14638549 77.26361467 13.375 77.265625 C12.29992187 77.26691406 11.22484375 77.26820313 10.1171875 77.26953125 C8.98539062 77.26566406 7.85359375 77.26179687 6.6875 77.2578125 C5.55570312 77.26167969 4.42390625 77.26554688 3.2578125 77.26953125 C2.18273437 77.26824219 1.10765625 77.26695312 0 77.265625 C-0.99386719 77.26449707 -1.98773438 77.26336914 -3.01171875 77.26220703 C-5.3125 77.1328125 -5.3125 77.1328125 -6.3125 76.1328125 C-6.41273555 73.79566925 -6.44869203 71.48806925 -6.44189453 69.15039062 C-6.44364685 68.4203331 -6.44539917 67.69027557 -6.44720459 66.93809509 C-6.45162299 64.51339372 -6.44868517 62.08876468 -6.4453125 59.6640625 C-6.44598554 57.98636867 -6.44695557 56.30867494 -6.44821167 54.63098145 C-6.44968863 51.11026076 -6.44753416 47.5895654 -6.44287109 44.06884766 C-6.4371738 39.54570754 -6.44045282 35.02262676 -6.44644356 30.49948883 C-6.45004923 27.03378855 -6.44891056 23.56810243 -6.44631577 20.10240173 C-6.44564651 18.43415825 -6.44647486 16.76591351 -6.44879532 15.09767151 C-6.45132195 12.77015756 -6.44748113 10.44274102 -6.44189453 8.11523438 C-6.44391876 7.41909531 -6.44594299 6.72295624 -6.44802856 6.00572205 C-6.42139896 0.04682547 -5.82299611 0.00660846 0 0 Z " fill="#0607FB" transform="translate(354.3125,593.8671875)"/>
<path d="M0 0 C1.19367188 -0.01675781 2.38734375 -0.03351562 3.6171875 -0.05078125 C10.09926598 0.62052532 13.81034881 3.61714429 18.125 8.3125 C18.455 5.6725 18.785 3.0325 19.125 0.3125 C22.095 0.3125 25.065 0.3125 28.125 0.3125 C28.98583769 13.20593559 28.98583769 13.20593559 25.75 17.125 C23.125 19.3125 23.125 19.3125 21.125 19.3125 C21.17140625 20.01375 21.2178125 20.715 21.265625 21.4375 C21.51345279 27.95183044 21.25276676 33.0610634 17.125 38.3125 C11.11195203 43.95589338 6.03514457 45.74481659 -2.140625 45.66015625 C-8.11442301 44.9006305 -13.10768139 42.03563564 -17.375 37.875 C-21.68389809 30.51396576 -22.3039848 21.85793533 -20.1875 13.64453125 C-17.79400819 7.69072037 -14.51103482 4.60724197 -9.1171875 1.203125 C-6.02216558 -0.02625653 -3.3217421 0.0107153 0 0 Z M-8.1875 12.3125 C-10.9227597 17.17518391 -11.47699912 22.14800905 -10.43359375 27.6328125 C-9.34204493 31.01349513 -8.30322718 32.93185361 -5.625 35.3125 C-2.09269135 36.59697587 0.38988825 36.77938897 4.125 36.3125 C7.03587711 34.56597373 8.65936606 33.06638353 10.4375 30.1875 C11.77187263 24.60739629 11.75827614 19.36133456 10.0625 13.875 C7.43296344 10.39722584 5.23166455 9.68138818 1.125 8.3125 C-2.54354621 8.3125 -5.50790463 9.99501211 -8.1875 12.3125 Z M19.125 10.3125 C19.785 11.6325 20.445 12.9525 21.125 14.3125 C21.455 12.9925 21.785 11.6725 22.125 10.3125 C21.135 10.3125 20.145 10.3125 19.125 10.3125 Z " fill="#1517FB" transform="translate(233.875,710.6875)"/>
<path d="M0 0 C3.114375 -0.061875 6.22875 -0.12375 9.4375 -0.1875 C10.39970459 -0.21481201 11.36190918 -0.24212402 12.35327148 -0.27026367 C19.72887047 -0.34024946 26.2921659 0.52762973 31.875 5.625 C36.56340759 13.0712944 38.41706304 20.71563349 36.4609375 29.390625 C34.69105905 35.26428755 32.63640589 39.52347039 27.10546875 42.62109375 C21.9303067 44.75148833 16.56459772 44.3206979 11.0625 44.1875 C9.99708984 44.17396484 8.93167969 44.16042969 7.83398438 44.14648438 C5.22243609 44.11135144 2.61115043 44.05755189 0 44 C0 38.06 0 32.12 0 26 C-1.65 25.67 -3.3 25.34 -5 25 C-5 23.35 -5 21.7 -5 20 C-3.35 19.67 -1.7 19.34 0 19 C0 12.73 0 6.46 0 0 Z M10 9 C10 12.3 10 15.6 10 19 C12.97 19 15.94 19 19 19 C18.67 20.98 18.34 22.96 18 25 C14.04 25.495 14.04 25.495 10 26 C10 28.97 10 31.94 10 35 C11.93719378 35.05406122 13.87481921 35.09282025 15.8125 35.125 C16.89144531 35.14820313 17.97039062 35.17140625 19.08203125 35.1953125 C22.19402868 35.23023717 22.19402868 35.23023717 25 33 C26.22552908 29.32341276 26.22256946 25.89248884 26.25 22.0625 C26.270625 21.34642578 26.29125 20.63035156 26.3125 19.89257812 C26.33622597 16.69253767 26.21531514 14.3957999 24.671875 11.55859375 C21.66578583 8.75618819 18.7175595 8.88678494 14.8125 8.9375 C12.4303125 8.9684375 12.4303125 8.9684375 10 9 Z " fill="#0E0FFA" transform="translate(370,711)"/>
<path d="M0 0 C3.27541186 0.03827477 4.4509174 0.28706803 6.79638672 2.63134766 C8.6330447 5.35803441 10.24191153 8.12937018 11.80859375 11.01953125 C12.37126953 11.99599609 12.93394531 12.97246094 13.51367188 13.97851562 C14.55564602 15.78983269 15.58381996 17.60920874 16.59350586 19.4387207 C17.60847586 21.2407628 18.72385361 22.98617104 19.87109375 24.70703125 C20.20109375 16.78703125 20.53109375 8.86703125 20.87109375 0.70703125 C23.84109375 0.70703125 26.81109375 0.70703125 29.87109375 0.70703125 C31.58485987 4.13456349 31.01254735 8.06499869 31.00390625 11.8359375 C31.00486298 12.74077377 31.0058197 13.64561005 31.00680542 14.5778656 C31.00748648 16.49193389 31.00563736 18.40600449 31.00146484 20.32006836 C30.99610936 23.26095729 31.00141553 26.20169392 31.0078125 29.14257812 C31.00715183 30.99869826 31.00587089 32.85481829 31.00390625 34.7109375 C31.00593048 35.59632706 31.00795471 36.48171661 31.01004028 37.39393616 C30.98604783 43.59207717 30.98604783 43.59207717 29.87109375 44.70703125 C26.37640179 45.45915334 23.34996562 45.57217863 19.87109375 44.70703125 C16.90887993 41.87403645 15.22064967 38.52155018 13.37109375 34.89453125 C12.860625 33.96576172 12.35015625 33.03699219 11.82421875 32.08007812 C10.87893154 30.35741656 9.94936317 28.62596723 9.04101562 26.88354492 C7.81502689 24.52039482 7.81502689 24.52039482 5.87109375 21.70703125 C5.54109375 29.29703125 5.21109375 36.88703125 4.87109375 44.70703125 C1.90109375 44.70703125 -1.06890625 44.70703125 -4.12890625 44.70703125 C-6.0775455 42.758392 -5.25809365 39.80894405 -5.26785278 37.21582031 C-5.26582855 36.30541992 -5.26380432 35.39501953 -5.26171875 34.45703125 C-5.26267548 33.52858398 -5.2636322 32.60013672 -5.26461792 31.64355469 C-5.2652998 29.6764316 -5.26344497 27.70930629 -5.25927734 25.7421875 C-5.2539292 22.72000099 -5.25922207 19.6979631 -5.265625 16.67578125 C-5.26496422 14.76953092 -5.26368306 12.86328068 -5.26171875 10.95703125 C-5.26374298 10.04663086 -5.26576721 9.13623047 -5.26785278 8.19824219 C-5.23910907 0.5606795 -5.23910907 0.5606795 0 0 Z " fill="#1618FA" transform="translate(510.12890625,776.29296875)"/>
<path d="M0 0 C5.7234375 -0.061875 5.7234375 -0.061875 11.5625 -0.125 C13.34636108 -0.15231201 13.34636108 -0.15231201 15.16625977 -0.18017578 C28.35739655 -0.24902421 28.35739655 -0.24902421 33.9375 4.5 C36.51159416 7.9891376 36.70706432 11.34876633 36.49609375 15.59375 C35.45316782 20.65235135 32.20651334 23.19565777 28 26 C28.86625 26.928125 29.7325 27.85625 30.625 28.8125 C34.5911763 33.40193258 37.25691914 38.62083788 40 44 C35.81817987 44.69000032 32.15689836 44.92715135 28 44 C24.54602919 40.77850799 22.39618608 37.03539519 20 33 C18.26525697 30.16951513 18.26525697 30.16951513 16 28 C14.02 27.67 12.04 27.34 10 27 C10 32.61 10 38.22 10 44 C6.7 44 3.4 44 0 44 C0 29.48 0 14.96 0 0 Z M10 9 C10 11.97 10 14.94 10 18 C12.29141286 18.05384521 14.58318188 18.09272087 16.875 18.125 C18.15117187 18.14820313 19.42734375 18.17140625 20.7421875 18.1953125 C24.08593338 18.35641524 24.08593338 18.35641524 26 16 C25.83557723 12.93008319 25.83557723 12.93008319 25 10 C22.11584117 8.55792059 19.58278472 8.90605113 16.375 8.9375 C14.59222656 8.95103516 14.59222656 8.95103516 12.7734375 8.96484375 C11.40058594 8.98224609 11.40058594 8.98224609 10 9 Z " fill="#1416FB" transform="translate(123,711)"/>
<path d="M0 0 C10 0 10 0 12.51220703 2.203125 C13.08825684 3.20859375 13.66430664 4.2140625 14.2578125 5.25 C14.90234375 6.3328125 15.546875 7.415625 16.2109375 8.53125 C17.15839844 10.24828125 17.15839844 10.24828125 18.125 12 C18.7986908 13.15822995 19.47574573 14.31451006 20.15625 15.46875 C21.80397708 18.293425 23.40647214 21.14439807 25 24 C25.33 16.08 25.66 8.16 26 0 C28.97 0 31.94 0 35 0 C35 14.52 35 29.04 35 44 C25 44 25 44 22.79492188 42.3034668 C22.1384668 41.13811401 22.1384668 41.13811401 21.46875 39.94921875 C20.96859375 39.10552734 20.4684375 38.26183594 19.953125 37.39257812 C19.47359375 36.49990234 18.9940625 35.60722656 18.5 34.6875 C17.98953125 33.80642578 17.4790625 32.92535156 16.953125 32.01757812 C16.00841671 30.38298417 15.07887685 28.73945908 14.16992188 27.0847168 C13.19245868 25.34294755 12.10790091 23.66185137 11 22 C10.67 29.26 10.34 36.52 10 44 C6.7 44 3.4 44 0 44 C0 29.48 0 14.96 0 0 Z " fill="#0E0FFC" transform="translate(194,777)"/>
<path d="M0 0 C2.46435547 0.02734375 2.46435547 0.02734375 4.94140625 0.8125 C8.3415265 4.38521912 10.60660068 8.52487191 13.00390625 12.8125 C13.68250485 13.97053797 14.36411846 15.12681478 15.04882812 16.28125 C16.70939885 19.10775336 18.32939244 21.95802495 19.94140625 24.8125 C20.27140625 16.8925 20.60140625 8.9725 20.94140625 0.8125 C23.91140625 0.8125 26.88140625 0.8125 29.94140625 0.8125 C29.94140625 15.3325 29.94140625 29.8525 29.94140625 44.8125 C19.94140625 44.8125 19.94140625 44.8125 17.52099609 42.79296875 C16.98684082 41.87128906 16.45268555 40.94960938 15.90234375 40 C15.00322266 38.51113281 15.00322266 38.51113281 14.0859375 36.9921875 C13.50199219 35.94289063 12.91804688 34.89359375 12.31640625 33.8125 C11.69378906 32.76320313 11.07117188 31.71390625 10.4296875 30.6328125 C8.90065751 28.04522328 7.41654324 25.43118699 5.94140625 22.8125 C5.61140625 30.0725 5.28140625 37.3325 4.94140625 44.8125 C1.64140625 44.8125 -1.65859375 44.8125 -5.05859375 44.8125 C-5.08323888 38.7069529 -5.10142746 32.60143449 -5.11352539 26.49584961 C-5.11856663 24.41706844 -5.12539949 22.33829084 -5.1340332 20.25952148 C-5.14610797 17.27847414 -5.15182399 14.29747351 -5.15625 11.31640625 C-5.16399193 9.91328941 -5.16399193 9.91328941 -5.17189026 8.48182678 C-5.17196579 7.62100998 -5.17204132 6.76019318 -5.17211914 5.87329102 C-5.17433975 5.11162125 -5.17656036 4.34995148 -5.17884827 3.56520081 C-4.95446852 0.29488237 -2.91085199 0.3747476 0 0 Z " fill="#1617FB" transform="translate(94.05859375,776.1875)"/>
<path d="M0 0 C3.3 0 6.6 0 10 0 C10.01458252 0.95366455 10.02916504 1.9073291 10.04418945 2.88989258 C10.10217792 6.42933585 10.17940958 9.96814324 10.26245117 13.50708008 C10.29569818 15.03855059 10.32373093 16.57014356 10.34643555 18.10180664 C10.37998718 20.30407887 10.4322991 22.50522912 10.48828125 24.70703125 C10.49467117 25.39150833 10.5010611 26.07598541 10.50764465 26.78120422 C10.59478565 29.60063986 10.70949203 31.56951951 12.30932617 33.94018555 C15.11253842 35.69740495 17.79286063 35.2332465 21 35 C23.12903791 34.21986523 23.12903791 34.21986523 23.60522461 32.37207031 C24.12399809 29.25493788 24.22270745 26.20586323 24.31640625 23.046875 C24.33718735 22.38665344 24.35796844 21.72643188 24.37937927 21.04620361 C24.44450147 18.94756985 24.50358502 16.84881628 24.5625 14.75 C24.60572079 13.32290453 24.6493362 11.89582095 24.69335938 10.46875 C24.80014411 6.97929278 24.90151566 3.48970247 25 0 C28.3 0 31.6 0 35 0 C35 4.95 35 9.9 35 15 C36.65 13.35 38.3 11.7 40 10 C38.68 10 37.36 10 36 10 C36 6.7 36 3.4 36 0 C39.3 0 42.6 0 46 0 C46.08160748 1.89510699 46.13946459 3.79124504 46.1875 5.6875 C46.23970703 7.27111328 46.23970703 7.27111328 46.29296875 8.88671875 C45.96171897 12.40679976 45.08995843 14.18029361 43 17 C40.03759752 19.1477418 38.68553144 20 35 20 C35.05220703 21.28583984 35.05220703 21.28583984 35.10546875 22.59765625 C35.39167301 34.68637895 35.39167301 34.68637895 32 40 C25.82571675 44.88797424 20.63948304 45.6224764 13 45 C8.54091208 44.03525696 5.7284406 42.76579653 2.5625 39.4375 C-0.14439964 35.21473657 -0.13121395 32.05899321 -0.09765625 27.1484375 C-0.0962413 26.37440582 -0.09482635 25.60037415 -0.09336853 24.80288696 C-0.08776403 22.32688558 -0.07521083 19.85097412 -0.0625 17.375 C-0.05748558 15.69791797 -0.05292257 14.02083453 -0.04882812 12.34375 C-0.03779315 8.22913194 -0.02052554 4.11458122 0 0 Z " fill="#1819FB" transform="translate(166,711)"/>
<path d="M0 0 C3.69675385 2.22120295 5.32464876 4.08565076 7.75 7.65234375 C7.75 9.30234375 7.75 10.95234375 7.75 12.65234375 C4.45 12.98234375 1.15 13.31234375 -2.25 13.65234375 C-2.91 12.33234375 -3.57 11.01234375 -4.25 9.65234375 C-7.75570701 7.89949024 -11.42478195 8.12472747 -15.25 8.65234375 C-18.59776204 10.08023651 -18.59776204 10.08023651 -20.25 13.65234375 C-21.04588437 19.60726427 -21.76452332 25.37281582 -18.33984375 30.52734375 C-15.61768738 33.2952934 -14.8588965 33.61787791 -10.9375 33.83984375 C-7.44202803 33.66210789 -5.25206747 33.41826579 -2.25 31.65234375 C-1.92 30.33234375 -1.59 29.01234375 -1.25 27.65234375 C-4.55 27.65234375 -7.85 27.65234375 -11.25 27.65234375 C-11.25 24.68234375 -11.25 21.71234375 -11.25 18.65234375 C-4.65 18.65234375 1.95 18.65234375 8.75 18.65234375 C8.75 24.92234375 8.75 31.19234375 8.75 37.65234375 C0.2406921 42.01896228 -6.69037761 45.39476125 -16.40234375 43.15625 C-22.40370371 41.11740026 -26.77595095 38.14297835 -30.0625 32.58984375 C-32.83757929 25.72517392 -33.47345092 18.42412982 -31 11.33984375 C-28.54798026 5.72392758 -25.39057692 1.96546766 -19.796875 -0.62109375 C-13.41784251 -2.44087909 -6.1391189 -2.5456683 0 0 Z " fill="#181AFB" transform="translate(338.25,712.34765625)"/>
<path d="M0 0 C9 0 9 0 11.09375 1.66015625 C11.5578125 2.45292969 12.021875 3.24570312 12.5 4.0625 C13.04785156 4.95839844 13.59570312 5.85429688 14.16015625 6.77734375 C14.76730469 7.84082031 15.37445313 8.90429688 16 10 C17.18751951 11.96604289 18.3856073 13.92542278 19.58374023 15.88500977 C21.41178881 18.90977904 23.20201856 21.95726217 25 25 C25.33 16.75 25.66 8.5 26 0 C28.97 0 31.94 0 35 0 C35 14.52 35 29.04 35 44 C25 44 25 44 22.57958984 41.98046875 C22.04543457 41.05878906 21.5112793 40.13710938 20.9609375 39.1875 C20.06181641 37.69863281 20.06181641 37.69863281 19.14453125 36.1796875 C18.56058594 35.13039063 17.97664063 34.08109375 17.375 33 C16.75238281 31.95070313 16.12976563 30.90140625 15.48828125 29.8203125 C13.95819984 27.23094396 12.46504462 24.6265386 11 22 C10.97494385 22.63091553 10.9498877 23.26183105 10.92407227 23.91186523 C10.80845863 26.75396825 10.68557684 29.59571083 10.5625 32.4375 C10.52318359 33.43072266 10.48386719 34.42394531 10.44335938 35.44726562 C10.40146484 36.39150391 10.35957031 37.33574219 10.31640625 38.30859375 C10.26141968 39.62041626 10.26141968 39.62041626 10.20532227 40.95874023 C10 43 10 43 9 44 C6.03 44 3.06 44 0 44 C0 29.48 0 14.96 0 0 Z " fill="#0E0FFA" transform="translate(265,711)"/>
<path d="M0 0 C4.10551321 2.47615591 6.96725461 5.37964327 8.55859375 10.03125 C8.62046875 10.5675 8.68234375 11.10375 8.74609375 11.65625 C4.70077078 13.25556373 1.91171845 14.23243232 -2.25390625 12.65625 C-2.69605469 11.98980469 -3.13820313 11.32335937 -3.59375 10.63671875 C-5.08974584 8.45591402 -5.08974584 8.45591402 -7.55859375 8.08984375 C-11.8088814 8.09630315 -14.58825829 8.2968001 -18.37890625 10.34375 C-21.30073739 15.50565167 -21.11487136 20.85908495 -20.25390625 26.65625 C-18.93685263 29.51522005 -17.93298812 31.17977486 -15.35546875 32.98828125 C-12.87849229 33.77557302 -11.19544319 33.69997503 -8.62890625 33.34375 C-7.46488281 33.19486328 -7.46488281 33.19486328 -6.27734375 33.04296875 C-4.19494939 32.73983801 -4.19494939 32.73983801 -2.25390625 31.65625 C-1.60177333 29.63161745 -1.60177333 29.63161745 -1.25390625 27.65625 C-1.89199219 27.66785156 -2.53007812 27.67945313 -3.1875 27.69140625 C-4.01378906 27.70042969 -4.84007812 27.70945312 -5.69140625 27.71875 C-6.92697266 27.73615234 -6.92697266 27.73615234 -8.1875 27.75390625 C-10.25390625 27.65625 -10.25390625 27.65625 -11.25390625 26.65625 C-11.25390625 24.01625 -11.25390625 21.37625 -11.25390625 18.65625 C-4.65390625 18.65625 1.94609375 18.65625 8.74609375 18.65625 C8.74609375 24.92625 8.74609375 31.19625 8.74609375 37.65625 C0.02058807 42.13381212 -6.98118743 45.5445672 -16.88671875 42.97265625 C-22.49283957 40.95612622 -26.02129115 38.84802577 -29.25390625 33.65625 C-33.03285623 25.37635554 -33.32820736 18.20258984 -30.15625 9.6953125 C-27.92228087 4.64712252 -24.74351807 1.66836374 -19.80078125 -0.6171875 C-13.41924399 -2.43768739 -6.14438783 -2.53741826 0 0 Z " fill="#1819FB" transform="translate(267.25390625,778.34375)"/>
<path d="M0 0 C1.29550781 -0.03738281 2.59101563 -0.07476563 3.92578125 -0.11328125 C9.37166949 0.5031277 12.3463323 2.86258897 16 6.8125 C17.54081378 9.09518709 18.28858035 10.61979237 18.6875 13.3125 C14.64217703 14.91181373 11.8531247 15.88868232 7.6875 14.3125 C6.1875 12.3125 6.1875 12.3125 4.6875 10.3125 C0.34561996 8.62399109 -3.08903816 9.59183036 -7.3125 11.3125 C-11.33982881 16.61063327 -11.05467276 21.92636231 -10.3125 28.3125 C-9.15575926 32.09406299 -9.15575926 32.09406299 -6.3125 34.3125 C-2.15839386 35.59128267 1.4712626 35.59122107 5.6875 34.625 C7.8757708 33.49558704 7.8757708 33.49558704 8.3125 31.23046875 C8.43625 30.59753906 8.56 29.96460938 8.6875 29.3125 C8.04941406 29.32410156 7.41132813 29.33570313 6.75390625 29.34765625 C5.92761719 29.35667969 5.10132813 29.36570312 4.25 29.375 C3.01443359 29.39240234 3.01443359 29.39240234 1.75390625 29.41015625 C-0.3125 29.3125 -0.3125 29.3125 -1.3125 28.3125 C-1.4375 24.8125 -1.4375 24.8125 -1.3125 21.3125 C-0.3125 20.3125 -0.3125 20.3125 1.54516602 20.19897461 C2.33592529 20.20421143 3.12668457 20.20944824 3.94140625 20.21484375 C4.7104126 20.21734131 5.47941895 20.21983887 6.27172852 20.22241211 C7.25455811 20.23151611 8.2373877 20.24062012 9.25 20.25 C12.364375 20.270625 15.47875 20.29125 18.6875 20.3125 C18.6875 26.5825 18.6875 32.8525 18.6875 39.3125 C9.89677988 43.82352743 3.06436057 47.05410468 -6.91015625 44.69921875 C-13.39757444 42.47803635 -17.06233066 39.34690532 -20.3125 33.3125 C-23.28786416 25.73884577 -23.04134574 18.87687206 -20.296875 11.35546875 C-18.17562339 6.95302989 -14.31057537 3.97788358 -10.3125 1.3125 C-6.74809582 0.12436527 -3.75775218 0.07062047 0 0 Z " fill="#1618FB" transform="translate(152.3125,776.6875)"/>
<path d="M0 0 C4.32550954 2.52254015 6.66522788 5.27922936 8.33984375 10.09375 C8.33984375 11.08375 8.33984375 12.07375 8.33984375 13.09375 C5.03984375 13.42375 1.73984375 13.75375 -1.66015625 14.09375 C-2.32015625 12.44375 -2.98015625 10.79375 -3.66015625 9.09375 C-8.93819724 8.01659878 -12.65537993 7.97634463 -17.66015625 10.09375 C-21.67828719 15.40442656 -21.40327854 20.6994419 -20.66015625 27.09375 C-19.50341551 30.87531299 -19.50341551 30.87531299 -16.66015625 33.09375 C-12.50605011 34.37253267 -8.87639365 34.37247107 -4.66015625 33.40625 C-2.18233653 32.10351893 -2.18233653 32.10351893 -1.66015625 28.09375 C-4.63015625 28.09375 -7.60015625 28.09375 -10.66015625 28.09375 C-10.66015625 25.12375 -10.66015625 22.15375 -10.66015625 19.09375 C-7.51426681 19.06691303 -4.36860354 19.04699098 -1.22265625 19.03125 C-0.32482422 19.02287109 0.57300781 19.01449219 1.49804688 19.00585938 C2.35205078 19.00263672 3.20605469 18.99941406 4.0859375 18.99609375 C4.87669678 18.99085693 5.66745605 18.98562012 6.48217773 18.98022461 C8.33984375 19.09375 8.33984375 19.09375 9.33984375 20.09375 C10.8829308 34.92011215 10.8829308 34.92011215 7.80078125 39.26171875 C5.66987571 40.59867686 3.75022092 41.38681959 1.33984375 42.09375 C0.20546875 42.526875 -0.92890625 42.96 -2.09765625 43.40625 C-9.45059861 44.82523888 -15.96270189 44.73622518 -22.66015625 41.09375 C-28.07110263 36.78958811 -31.3688247 30.96437137 -32.53515625 24.15625 C-33.11443075 16.96476897 -31.23274334 10.68246756 -26.66015625 5.09375 C-19.55638833 -1.7862772 -9.39017637 -3.19900282 0 0 Z " fill="#1517FB" transform="translate(578.66015625,777.90625)"/>
<path d="M0 0 C2.9375 1.375 2.9375 1.375 5 3 C5 3.66 5 4.32 5 5 C7.31 5 9.62 5 12 5 C12 7.97 12 10.94 12 14 C4.41 14 -3.18 14 -11 14 C-11 16.64 -11 19.28 -11 22 C-4.07 22 2.86 22 10 22 C10 24.64 10 27.28 10 30 C7.59564994 31.20217503 6.31618631 31.03897118 3.6484375 30.87890625 C2.79765625 30.83056641 1.946875 30.78222656 1.0703125 30.73242188 C0.18085938 30.67634766 -0.70859375 30.62027344 -1.625 30.5625 C-2.5221875 30.51029297 -3.419375 30.45808594 -4.34375 30.40429688 C-6.56279383 30.2744592 -8.7814404 30.1378646 -11 30 C-11 33.3 -11 36.6 -11 40 C-8.52693359 39.98259766 -8.52693359 39.98259766 -6.00390625 39.96484375 C-3.85677196 39.95546762 -1.70963645 39.94636723 0.4375 39.9375 C1.52611328 39.92912109 2.61472656 39.92074219 3.73632812 39.91210938 C4.77080078 39.90888672 5.80527344 39.90566406 6.87109375 39.90234375 C7.82943115 39.89710693 8.78776855 39.89187012 9.77514648 39.88647461 C12 40 12 40 13 41 C13 43.64 13 46.28 13 49 C1.78 49 -9.44 49 -21 49 C-21.02290553 42.89440345 -21.04283367 36.78895484 -21.05493164 30.68334961 C-21.05997288 28.60456844 -21.06680574 26.52579084 -21.07543945 24.44702148 C-21.08751422 21.46597414 -21.09323024 18.48497351 -21.09765625 15.50390625 C-21.10539818 14.10078941 -21.10539818 14.10078941 -21.11329651 12.66932678 C-21.11337204 11.80850998 -21.11344757 10.94769318 -21.11352539 10.06079102 C-21.115746 9.29912125 -21.11796661 8.53745148 -21.12025452 7.75270081 C-21 6 -21 6 -20 5 C-18.948125 4.896875 -17.89625 4.79375 -16.8125 4.6875 C-12.93492121 4.25810809 -12.93492121 4.25810809 -10 1.9375 C-6.30293819 -0.45018575 -4.32865183 -0.55091932 0 0 Z " fill="#0505FB" transform="translate(346,772)"/>
<path d="M0 0 C9 0 9 0 11.12890625 1.73046875 C11.60199219 2.54128906 12.07507813 3.35210938 12.5625 4.1875 C13.38621094 5.53521484 13.38621094 5.53521484 14.2265625 6.91015625 C14.81179688 7.92980469 15.39703125 8.94945312 16 10 C16.7321597 11.18917869 17.46933202 12.37528268 18.2109375 13.55859375 C20.169602 16.68845359 22.09233634 19.83872879 24 23 C24.02505615 22.3387915 24.0501123 21.67758301 24.07592773 20.99633789 C24.19153102 18.01817695 24.31441754 15.0403608 24.4375 12.0625 C24.47681641 11.02158203 24.51613281 9.98066406 24.55664062 8.90820312 C24.59853516 7.91884766 24.64042969 6.92949219 24.68359375 5.91015625 C24.72025146 4.99371338 24.75690918 4.07727051 24.79467773 3.13305664 C25 1 25 1 26 0 C28.64 0 31.28 0 34 0 C34 14.52 34 29.04 34 44 C25 44 25 44 22.87109375 42.26953125 C22.39800781 41.45871094 21.92492187 40.64789062 21.4375 39.8125 C20.61378906 38.46478516 20.61378906 38.46478516 19.7734375 37.08984375 C19.18820312 36.07019531 18.60296875 35.05054688 18 34 C16.92964679 32.26152514 15.84590405 30.53192919 14.76025391 28.80297852 C13.15244471 26.21494973 11.57977189 23.60523785 10 21 C9.67 28.59 9.34 36.18 9 44 C6.03 44 3.06 44 0 44 C0 29.48 0 14.96 0 0 Z " fill="#1213FC" transform="translate(663,777)"/>
<path d="M0 0 C5.01443071 2.67955166 8.72443739 6.86406157 10.8125 12.1171875 C12.98769984 19.96515522 12.70106259 28.25322304 8.890625 35.515625 C5.5276042 40.59874824 0.44629928 42.87704734 -5.30078125 44.31640625 C-11.99100415 45.30270909 -17.5899258 43.92034416 -23.30078125 40.31640625 C-27.89123871 36.23972262 -30.08693367 31.67618941 -30.63671875 25.609375 C-30.96733316 10.68836717 -30.96733316 10.68836717 -26.30078125 5.31640625 C-19.02963182 -1.22762824 -9.46548457 -2.81232564 0 0 Z M-17.30078125 10.31640625 C-20.97305156 15.17327989 -20.99559815 20.46281185 -20.30078125 26.31640625 C-19.02533644 30.00848334 -18.00740462 31.74346838 -14.98828125 34.19140625 C-10.8088439 35.94093817 -7.84588731 35.89132943 -3.61328125 34.31640625 C-0.2859755 31.43873642 0.87495722 28.60401229 1.69921875 24.31640625 C1.96191473 19.30200354 1.56323116 14.87196668 -1.48828125 10.75390625 C-6.94480909 6.02491546 -11.23550597 6.76879241 -17.30078125 10.31640625 Z " fill="#1618FB" transform="translate(72.30078125,777.68359375)"/>
<path d="M0 0 C1.20269531 -0.02578125 2.40539062 -0.0515625 3.64453125 -0.078125 C8.31340324 0.35427329 11.53061813 1.75597404 15.015625 4.8984375 C15.48484375 5.46820312 15.9540625 6.03796875 16.4375 6.625 C16.91703125 7.18960938 17.3965625 7.75421875 17.890625 8.3359375 C22.39331858 14.98147922 21.84130609 22.5596059 21.1875 30.25 C19.59943838 36.21425415 16.24442126 39.87871916 11.1875 43.25 C3.85390977 46.10195176 -2.8229478 46.19847422 -9.99609375 43.15234375 C-14.81512949 40.75837115 -17.85104965 37.70899198 -20.08203125 32.85546875 C-22.02413719 25.92827804 -22.21448715 17.34797113 -19.25 10.6875 C-14.57492374 3.04041097 -8.78860537 0.11231445 0 0 Z M-7.3125 10.9375 C-10.54216874 15.91657264 -11.53373361 20.31109196 -10.8125 26.25 C-9.58264321 30.19848758 -8.68055184 32.52271333 -5.5 35.1875 C-2.25038871 36.47223005 -0.2821436 36.74566337 3.1875 36.25 C6.83721923 34.42514039 8.72628889 33.17242222 10.5625 29.5 C11.92780992 22.40038844 11.59391345 17.55817305 8.1875 11.25 C3.50706125 8.1297075 -2.54343652 7.71838215 -7.3125 10.9375 Z " fill="#1618FB" transform="translate(478.8125,776.75)"/>
<path d="M0 0 C6.1385667 3.70170657 9.47777511 8.16924383 11.44140625 15.05859375 C12.29759191 22.99324461 12.00810484 30.3072091 7.44140625 37.05859375 C3.52093937 41.54070054 -1.00794507 43.7288486 -6.9140625 44.27734375 C-14.09434818 44.53805004 -18.8511642 42.93296805 -24.80859375 38.80859375 C-30.23571621 33.38147129 -30.76538977 29.11525202 -30.99609375 21.62109375 C-30.82380514 14.34189996 -29.9411569 9.54878391 -24.83984375 4.28515625 C-18.07030134 -1.82464262 -8.70238163 -3.201945 0 0 Z M-17.62109375 10.30859375 C-21.0340283 15.15275892 -21.12098669 20.27398066 -20.55859375 26.05859375 C-19.04094115 30.15625577 -17.53542834 33.07017645 -13.55859375 35.05859375 C-9.84165142 35.46407837 -7.30146049 35.34561045 -3.80859375 33.99609375 C0.15798383 30.58042972 1.26997471 26.65862141 1.81640625 21.55859375 C1.32112238 16.93594429 0.01984304 13.08733533 -2.859375 9.38671875 C-5.73612548 7.13822412 -8.58465324 7.53380717 -12.109375 7.63671875 C-14.8489582 7.92086006 -14.8489582 7.92086006 -17.62109375 10.30859375 Z " fill="#1618FB" transform="translate(559.55859375,711.94140625)"/>
<path d="M0 0 C1.37478516 0.01740234 1.37478516 0.01740234 2.77734375 0.03515625 C3.69644531 0.04417969 4.61554688 0.05320312 5.5625 0.0625 C6.27277344 0.07410156 6.98304688 0.08570313 7.71484375 0.09765625 C9.33448821 3.98874858 10.95179146 7.88080405 12.56713867 11.77368164 C13.11438272 13.09164239 13.66221281 14.40935999 14.21069336 15.72680664 C24.71484375 40.96180038 24.71484375 40.96180038 24.71484375 44.09765625 C21.08484375 44.09765625 17.45484375 44.09765625 13.71484375 44.09765625 C12.72484375 41.12765625 11.73484375 38.15765625 10.71484375 35.09765625 C2.79484375 35.59265625 2.79484375 35.59265625 -5.28515625 36.09765625 C-6.27515625 38.73765625 -7.26515625 41.37765625 -8.28515625 44.09765625 C-11.91515625 44.09765625 -15.54515625 44.09765625 -19.28515625 44.09765625 C-16.68166624 35.93131347 -13.62482464 27.94855517 -10.55957031 19.94726562 C-9.65217718 17.5768119 -8.74977836 15.20449524 -7.84765625 12.83203125 C-7.27243401 11.32670878 -6.69692386 9.8214963 -6.12109375 8.31640625 C-5.85130707 7.60609253 -5.58152039 6.89577881 -5.30355835 6.16394043 C-2.98273503 0.12746731 -2.98273503 0.12746731 0 0 Z " fill="#1517FB" transform="translate(427.28515625,710.90234375)"/>
<path d="M0 0 C3.3 0 6.6 0 10 0 C10 5.61 10 11.22 10 17 C14.95 17 19.9 17 25 17 C24.98839844 15.85660156 24.97679687 14.71320312 24.96484375 13.53515625 C24.95546712 12.04427246 24.94636679 10.55338691 24.9375 9.0625 C24.92912109 8.30775391 24.92074219 7.55300781 24.91210938 6.77539062 C24.90347559 4.85005687 24.94775667 2.92464419 25 1 C25.33 0.67 25.66 0.34 26 0 C28.97 0 31.94 0 35 0 C35 14.52 35 29.04 35 44 C31.7 44 28.4 44 25 44 C25 38.06 25 32.12 25 26 C20.05 26 15.1 26 10 26 C10 31.94 10 37.88 10 44 C6.7 44 3.4 44 0 44 C0 29.48 0 14.96 0 0 Z " fill="#0C0CFA" transform="translate(417,777)"/>
<path d="M0 0 C2.97 0 5.94 0 9 0 C10 1 10 1 10.09765625 4.59765625 C10.0909822 6.08596867 10.07902183 7.57426432 10.0625 9.0625 C10.05798828 9.82111328 10.05347656 10.57972656 10.04882812 11.36132812 C10.0370068 13.24091871 10.01907078 15.12046899 10 17 C14.95 17 19.9 17 25 17 C24.98839844 15.85660156 24.97679687 14.71320312 24.96484375 13.53515625 C24.95546712 12.04427246 24.94636679 10.55338691 24.9375 9.0625 C24.92912109 8.30775391 24.92074219 7.55300781 24.91210938 6.77539062 C24.90347559 4.85005687 24.94775667 2.92464419 25 1 C25.33 0.67 25.66 0.34 26 0 C28.97 0 31.94 0 35 0 C35 14.52 35 29.04 35 44 C31.7 44 28.4 44 25 44 C25 38.06 25 32.12 25 26 C20.05 26 15.1 26 10 26 C10 31.94 10 37.88 10 44 C6.7 44 3.4 44 0 44 C0 29.48 0 14.96 0 0 Z " fill="#0E0FFA" transform="translate(488,711)"/>
<path d="M0 0 C2.97 0 5.94 0 9 0 C10 1 10 1 10.09765625 4.37890625 C10.09191424 5.77347492 10.07890228 7.16801597 10.0625 8.5625 C10.0315625 12.2440625 10.0315625 12.2440625 10 16 C14.95 16.33 19.9 16.66 25 17 C25 11.39 25 5.78 25 0 C31.93359375 -0.09765625 31.93359375 -0.09765625 34 0 C35 1 35 1 35.12025452 2.75270081 C35.11803391 3.51437057 35.11581329 4.27604034 35.11352539 5.06079102 C35.11344986 5.92160782 35.11337433 6.78242462 35.11329651 7.66932678 C35.10813522 8.60473801 35.10297394 9.54014923 35.09765625 10.50390625 C35.0962413 11.45692123 35.09482635 12.40993622 35.09336853 13.39183044 C35.08775152 16.44875165 35.07519616 19.50560077 35.0625 22.5625 C35.05748719 24.62955624 35.05292391 26.69661362 35.04882812 28.76367188 C35.03777656 33.84247588 35.02050055 38.9212257 35 44 C31.7 44 28.4 44 25 44 C25 38.06 25 32.12 25 26 C20.05 26 15.1 26 10 26 C10 31.94 10 37.88 10 44 C6.7 44 3.4 44 0 44 C0 29.48 0 14.96 0 0 Z " fill="#0C0DFA" transform="translate(283,777)"/>
<path d="M0 0 C4.69416346 2.39310294 6.63304945 5.73724004 8.73046875 10.3515625 C8.73046875 11.3415625 8.73046875 12.3315625 8.73046875 13.3515625 C5.37686552 13.99796312 2.1511476 14.50359267 -1.26953125 14.3515625 C-3.39453125 11.9140625 -3.39453125 11.9140625 -5.26953125 9.3515625 C-8.0484254 8.642305 -10.47969773 8.72714391 -13.26953125 9.3515625 C-16.5173128 11.6833031 -17.52724858 13.52110383 -18.26953125 17.3515625 C-18.64814712 22.27356882 -18.83795327 26.98524506 -16.26953125 31.3515625 C-13.94526303 33.7588403 -12.58861864 34.29838127 -9.26953125 34.8515625 C-6.09031614 34.62038516 -6.09031614 34.62038516 -3.95703125 32.0390625 C-2.15651641 29.40696702 -2.15651641 29.40696702 -1.26953125 26.3515625 C0.2125337 26.6060585 1.6911549 26.88068012 3.16796875 27.1640625 C3.99167969 27.31488281 4.81539062 27.46570313 5.6640625 27.62109375 C6.68693359 27.98267578 6.68693359 27.98267578 7.73046875 28.3515625 C8.87186501 31.77575128 8.68021779 32.19933015 7.16796875 35.2890625 C5.06129782 39.25456072 2.75965548 41.25302774 -1.26953125 43.3515625 C-7.08802047 45.10183975 -12.93308413 45.27643704 -18.51953125 42.7265625 C-23.98388805 39.64605856 -27.33911768 35.34600465 -29.26953125 29.3515625 C-30.03887117 21.36295143 -30.59557227 12.88525235 -25.26953125 6.3515625 C-18.27401207 -0.86654139 -9.9045344 -2.82986697 0 0 Z " fill="#191BFB" transform="translate(604.26953125,711.6484375)"/>
<path d="M0 0 C3.93971874 2.92953445 6.08952056 5.2755908 7.1875 10.125 C7.27 11.011875 7.3525 11.89875 7.4375 12.8125 C4.1375 13.1425 0.8375 13.4725 -2.5625 13.8125 C-3.0265625 12.575 -3.0265625 12.575 -3.5 11.3125 C-5.26098937 8.64730394 -5.26098937 8.64730394 -7.66015625 8.375 C-12.3104431 8.13394884 -12.3104431 8.13394884 -16.28125 10.21875 C-18.99033788 13.58859103 -18.75904923 16.37120942 -18.8125 20.625 C-18.83828125 21.84832031 -18.8640625 23.07164062 -18.890625 24.33203125 C-18.54123546 28.03805603 -17.79819119 29.87679871 -15.5625 32.8125 C-12.72166359 34.23291821 -10.70772722 34.12702272 -7.5625 33.8125 C-4.42411825 31.37153642 -3.37820009 29.44390018 -1.5625 25.8125 C2.8925 26.8025 2.8925 26.8025 7.4375 27.8125 C7.14825891 32.6331848 6.37508523 35.91298311 3.015625 39.5234375 C-1.2994307 43.04811171 -6.88304038 44.48075844 -12.41796875 44.21875 C-18.66020079 43.03625067 -23.6612954 40.44180737 -27.32421875 35.21875 C-30.0282 30.59753463 -30.31430815 26.57926522 -30.1875 21.3125 C-30.21650391 20.10787109 -30.21650391 20.10787109 -30.24609375 18.87890625 C-30.19611837 12.71194407 -28.41241258 8.60719811 -24.5625 3.8125 C-17.80911077 -2.45850429 -8.59398721 -2.8646624 0 0 Z " fill="#181AFB" transform="translate(29.5625,778.1875)"/>
<path d="M0 0 C1.43352212 0.00015908 2.86704998 0.00585132 4.30053711 0.01586914 C5.43041298 0.01799156 5.43041298 0.01799156 6.58311462 0.02015686 C8.99807646 0.02577163 11.41294687 0.03832656 13.82788086 0.05102539 C15.46134307 0.05603849 17.09480672 0.06060173 18.72827148 0.06469727 C22.74067671 0.07574585 26.75301326 0.09302033 30.76538086 0.11352539 C30.76538086 3.08352539 30.76538086 6.05352539 30.76538086 9.11352539 C26.80538086 9.11352539 22.84538086 9.11352539 18.76538086 9.11352539 C18.76538086 20.66352539 18.76538086 32.21352539 18.76538086 44.11352539 C15.46538086 44.11352539 12.16538086 44.11352539 8.76538086 44.11352539 C8.76538086 32.56352539 8.76538086 21.01352539 8.76538086 9.11352539 C4.47538086 9.11352539 0.18538086 9.11352539 -4.23461914 9.11352539 C-4.33227539 2.96118164 -4.33227539 2.96118164 -4.23461914 1.11352539 C-3.23461914 0.11352539 -3.23461914 0.11352539 0 0 Z " fill="#1315FB" transform="translate(611.234619140625,776.886474609375)"/>
<path d="M0 0 C1.43352212 0.00015908 2.86704998 0.00585132 4.30053711 0.01586914 C5.43041298 0.01799156 5.43041298 0.01799156 6.58311462 0.02015686 C8.99807646 0.02577163 11.41294687 0.03832656 13.82788086 0.05102539 C15.46134307 0.05603849 17.09480672 0.06060173 18.72827148 0.06469727 C22.74067671 0.07574585 26.75301326 0.09302033 30.76538086 0.11352539 C30.76538086 3.08352539 30.76538086 6.05352539 30.76538086 9.11352539 C24.82538086 9.60852539 24.82538086 9.60852539 18.76538086 10.11352539 C18.76538086 21.33352539 18.76538086 32.55352539 18.76538086 44.11352539 C15.46538086 44.11352539 12.16538086 44.11352539 8.76538086 44.11352539 C8.76538086 32.56352539 8.76538086 21.01352539 8.76538086 9.11352539 C4.47538086 9.11352539 0.18538086 9.11352539 -4.23461914 9.11352539 C-4.33227539 2.96118164 -4.33227539 2.96118164 -4.23461914 1.11352539 C-3.23461914 0.11352539 -3.23461914 0.11352539 0 0 Z " fill="#0C0CFA" transform="translate(88.234619140625,710.886474609375)"/>
<path d="M0 0 C4.82380802 -0.0246519 9.64757967 -0.04283693 14.47143555 -0.05493164 C16.11369464 -0.05997174 17.75594923 -0.06680378 19.39819336 -0.07543945 C21.75375479 -0.08751926 24.10925709 -0.09323139 26.46484375 -0.09765625 C27.20339096 -0.10281754 27.94193817 -0.10797882 28.7028656 -0.11329651 C30.46898088 -0.1134925 32.23497146 -0.06194719 34 0 C35 1 35 1 35.09765625 2.84765625 C35.06510417 4.8984375 35.03255208 6.94921875 35 9 C30.71 9 26.42 9 22 9 C22 20.55 22 32.1 22 44 C19.03 44 16.06 44 13 44 C12 43 12 43 11.88647461 39.85717773 C11.88663367 38.46597303 11.89232494 37.07476239 11.90234375 35.68359375 C11.9037587 34.95253922 11.90517365 34.22148468 11.90663147 33.46827698 C11.91224592 31.12464368 11.92480078 28.78110461 11.9375 26.4375 C11.94251314 24.85221492 11.94707637 23.26692834 11.95117188 21.68164062 C11.96222003 17.7877239 11.97949428 13.89387795 12 10 C8.04 9.67 4.08 9.34 0 9 C0 6.03 0 3.06 0 0 Z " fill="#0A0AFB" transform="translate(378,777)"/>
<path d="M0 0 C3.3 0 6.6 0 10 0 C10 14.52 10 29.04 10 44 C6.7 44 3.4 44 0 44 C0 29.48 0 14.96 0 0 Z " fill="#1516FA" transform="translate(455,711)"/>
<path d="M0 0 C2.97 0 5.94 0 9 0 C9 14.52 9 29.04 9 44 C5.7 44 2.4 44 -1 44 C-1.02464513 37.8944529 -1.04283371 31.78893449 -1.05493164 25.68334961 C-1.05997288 23.60456844 -1.06680574 21.52579084 -1.07543945 19.44702148 C-1.08751422 16.46597414 -1.09323024 13.48497351 -1.09765625 10.50390625 C-1.10539818 9.10078941 -1.10539818 9.10078941 -1.11329651 7.66932678 C-1.11337204 6.80850998 -1.11344757 5.94769318 -1.11352539 5.06079102 C-1.115746 4.29912125 -1.11796661 3.53745148 -1.12025452 2.75270081 C-1 1 -1 1 0 0 Z " fill="#1111F9" transform="translate(647,777)"/>
<path d="M0 0 C2.59158799 12.93480075 2.20103487 25.87087662 2 39 C0.515 39.495 0.515 39.495 -1 40 C-1.51046875 38.65421875 -1.51046875 38.65421875 -2.03125 37.28125 C-5.0558784 29.44924414 -8.39851754 21.90329057 -12.28320312 14.45703125 C-14.22159936 10.71126358 -15.78038489 7.03841941 -17 3 C-11.37076548 1.27676494 -5.93426084 0 0 0 Z " fill="#3D73FE" transform="translate(431,273)"/>
<path d="M0 0 C5.61 0.66 11.22 1.32 17 2 C16.06569787 5.73720852 14.84622437 8.6054491 13.1640625 12.05078125 C12.30941406 13.81131836 12.30941406 13.81131836 11.4375 15.60742188 C10.83357244 16.84256486 10.22940388 18.07759003 9.625 19.3125 C4.58993866 29.55475124 4.58993866 29.55475124 0 40 C-0.66 40 -1.32 40 -2 40 C-2.05001046 35.91068318 -2.08600357 31.82148859 -2.10986328 27.73193359 C-2.11982603 26.34518324 -2.13340118 24.95845335 -2.15087891 23.57177734 C-2.25039805 15.46389391 -1.95048464 7.9094456 0 0 Z " fill="#3C72FE" transform="translate(229,273)"/>
<path d="M0 0 C0 3.31622982 -0.38673516 3.92061002 -2.23828125 6.51953125 C-2.72321045 7.20515137 -3.20813965 7.89077148 -3.70776367 8.59716797 C-4.23732666 9.32822754 -4.76688965 10.05928711 -5.3125 10.8125 C-5.85430908 11.56934082 -6.39611816 12.32618164 -6.9543457 13.10595703 C-14.86845817 24.08096041 -23.38224467 34.57357998 -32 45 C-32.66 44.67 -33.32 44.34 -34 44 C-33.09290283 42.62448975 -33.09290283 42.62448975 -32.16748047 41.22119141 C-29.89539219 37.7746346 -27.62602611 34.32629227 -25.35742188 30.87744141 C-24.38060901 29.39323925 -23.40308696 27.90950356 -22.42480469 26.42626953 C-21.00783375 24.2776316 -19.59333207 22.12739012 -18.1796875 19.9765625 C-17.72148621 19.28153625 -17.26328491 18.58651001 -16.79119873 17.87042236 C-13.7654124 13.25356446 -10.93731549 8.56459937 -8.32080078 3.70068359 C-6.66455724 1.56807869 -5.62216286 1.40238924 -3 1 C-2.01 0.67 -1.02 0.34 0 0 Z " fill="#5080FD" transform="translate(636,256)"/>
<path d="M0 0 C2.9375 1.375 2.9375 1.375 5 3 C5 3.66 5 4.32 5 5 C7.31 5 9.62 5 12 5 C12 7.97 12 10.94 12 14 C4.08 14 -3.84 14 -12 14 C-12 13.67 -12 13.34 -12 13 C-4.41 13 3.18 13 11 13 C11 11.02 11 9.04 11 7 C0.77 7 -9.46 7 -20 7 C-20 20.86 -20 34.72 -20 49 C-20.33 49 -20.66 49 -21 49 C-21.02464513 42.8944529 -21.04283371 36.78893449 -21.05493164 30.68334961 C-21.05997288 28.60456844 -21.06680574 26.52579084 -21.07543945 24.44702148 C-21.08751422 21.46597414 -21.09323024 18.48497351 -21.09765625 15.50390625 C-21.10539818 14.10078941 -21.10539818 14.10078941 -21.11329651 12.66932678 C-21.11337204 11.80850998 -21.11344757 10.94769318 -21.11352539 10.06079102 C-21.115746 9.29912125 -21.11796661 8.53745148 -21.12025452 7.75270081 C-21 6 -21 6 -20 5 C-18.948125 4.896875 -17.89625 4.79375 -16.8125 4.6875 C-12.93492121 4.25810809 -12.93492121 4.25810809 -10 1.9375 C-6.30293819 -0.45018575 -4.32865183 -0.55091932 0 0 Z " fill="#4D51F5" transform="translate(346,772)"/>
<path d="M0 0 C0.99 0.33 1.98 0.66 3 1 C-7.58443835 7.69631007 -18.2170891 14.26344206 -29.1875 20.3125 C-30.04182617 20.78598877 -30.89615234 21.25947754 -31.77636719 21.74731445 C-37.74439633 25 -37.74439633 25 -40 25 C-39.67 23.35 -39.34 21.7 -39 20 C-41.31 20.66 -43.62 21.32 -46 22 C-46 21.34 -46 20.68 -46 20 C-45.09483643 19.72317383 -44.18967285 19.44634766 -43.25708008 19.16113281 C-33.62987131 16.10071335 -24.72034986 12.24728016 -15.6875 7.75 C-14.37607565 7.10590557 -13.06422756 6.4626732 -11.75195312 5.8203125 C-7.82682336 3.89587871 -3.91000057 1.95500028 0 0 Z " fill="#5682FC" transform="translate(440,435)"/>
<path d="M0 0 C2.25 1.75 2.25 1.75 4 4 C4.8971875 5.0209375 4.8971875 5.0209375 5.8125 6.0625 C6.204375 6.701875 6.59625 7.34125 7 8 C6.67 8.99 6.34 9.98 6 11 C-0.625 10.25 -0.625 10.25 -4 8 C-4.66 8.66 -5.32 9.32 -6 10 C-8.68839385 10.26991906 -11.29141936 10.08737357 -14 10 C-7.99131514 -0.98138958 -7.99131514 -0.98138958 0 0 Z " fill="#2224FA" transform="translate(66,766)"/>
<path d="M0 0 C2.77252761 0.26658919 3.80199185 0.81289907 5.84375 2.7421875 C10 8.09433962 10 8.09433962 10 11 C8.741875 11.04125 7.48375 11.0825 6.1875 11.125 C5.47980469 11.14820313 4.77210938 11.17140625 4.04296875 11.1953125 C2 11 2 11 -1 9 C-1.66 9.66 -2.32 10.32 -3 11 C-5.32275177 11.40047444 -7.65739357 11.7397104 -10 12 C-10 7.86133929 -8.35266913 5.89643552 -5.84375 2.70703125 C-3.80124182 0.81598025 -2.74838191 0.26955284 0 0 Z " fill="#1C1EFB" transform="translate(479,765)"/>
<path d="M0 0 C0.33 0 0.66 0 1 0 C1 14.19 1 28.38 1 43 C3.31 43 5.62 43 8 43 C8 34.42 8 25.84 8 17 C8.99 17.33 9.98 17.66 11 18 C10.67 26.58 10.34 35.16 10 44 C6.7 44 3.4 44 0 44 C0 29.48 0 14.96 0 0 Z " fill="#3A3DF2" transform="translate(194,777)"/>
<path d="M0 0 C3.3 0 6.6 0 10 0 C10 3.3 10 6.6 10 10 C6.7 10 3.4 10 0 10 C0 6.7 0 3.4 0 0 Z " fill="#2D2FF9" transform="translate(425,757)"/>
<path d="M0 0 C4.82380802 -0.0246519 9.64757967 -0.04283693 14.47143555 -0.05493164 C16.11369464 -0.05997174 17.75594923 -0.06680378 19.39819336 -0.07543945 C21.75375479 -0.08751926 24.10925709 -0.09323139 26.46484375 -0.09765625 C27.20339096 -0.10281754 27.94193817 -0.10797882 28.7028656 -0.11329651 C30.46898088 -0.1134925 32.23497146 -0.06194719 34 0 C35 1 35 1 35.09765625 2.84765625 C35.06510417 4.8984375 35.03255208 6.94921875 35 9 C30.71 9 26.42 9 22 9 C22 8.67 22 8.34 22 8 C25.63 8 29.26 8 33 8 C33 6.02 33 4.04 33 2 C22.11 2 11.22 2 0 2 C0 1.34 0 0.68 0 0 Z " fill="#2729F6" transform="translate(378,777)"/>
<path d="M0 0 C2 4 2 4 1.45703125 5.8203125 C-0.6456555 8.96588678 -2.95086921 11.9206093 -5.3125 14.875 C-6.0230957 15.77412109 -6.0230957 15.77412109 -6.74804688 16.69140625 C-9.77530556 20.50964498 -12.86717392 24.26799953 -16 28 C-16.66 27.67 -17.32 27.34 -18 27 C-12.06 18.09 -6.12 9.18 0 0 Z " fill="#5986FC" transform="translate(620,273)"/>
<path d="M0 0 C2.97 0 5.94 0 9 0 C9 3.3 9 6.6 9 10 C6.03 10 3.06 10 0 10 C0 6.7 0 3.4 0 0 Z " fill="#2426FA" transform="translate(545,757)"/>
<path d="M0 0 C3.3 0 6.6 0 10 0 C14 7.75 14 7.75 14 10 C10.9375 10.5 10.9375 10.5 7 10 C4.2292016 7.65712414 1.99909747 5.02598948 0 2 C0 1.34 0 0.68 0 0 Z " fill="#191BF9" transform="translate(225,700)"/>
<path d="M0 0 C2 1 2 1 2.81640625 3.14453125 C3.06261719 4.02496094 3.30882812 4.90539062 3.5625 5.8125 C3.81128906 6.68519531 4.06007813 7.55789063 4.31640625 8.45703125 C4.90103675 10.63185672 5.45380144 12.81520578 6 15 C2.7 15 -0.6 15 -4 15 C-3.32584613 9.7415998 -1.75734451 4.97361654 0 0 Z " fill="#E7EBFD" transform="translate(429,723)"/>
<path d="M0 0 C-1.32 0.33 -2.64 0.66 -4 1 C-3.67 2.32 -3.34 3.64 -3 5 C-4.78881736 6.00508801 -6.58114696 7.00392736 -8.375 8 C-9.37273437 8.556875 -10.37046875 9.11375 -11.3984375 9.6875 C-14 11 -14 11 -16 11 C-15.67 9.35 -15.34 7.7 -15 6 C-17.31 6.66 -19.62 7.32 -22 8 C-22 7.34 -22 6.68 -22 6 C-20.96359375 5.66226562 -19.9271875 5.32453125 -18.859375 4.9765625 C-17.4895304 4.52620263 -16.11974166 4.07567286 -14.75 3.625 C-14.06808594 3.40328125 -13.38617188 3.1815625 -12.68359375 2.953125 C-9.91896966 2.04053064 -7.27587481 1.1473209 -4.703125 -0.2265625 C-3 -1 -3 -1 0 0 Z " fill="#5B87FC" transform="translate(416,449)"/>
<path d="M0 0 C2.97 0 5.94 0 9 0 C9.25 6.625 9.25 6.625 7 10 C4.375 10.1875 4.375 10.1875 2 10 C-0.09350689 6.5980513 -0.17942163 3.94727588 0 0 Z " fill="#1F22F9" transform="translate(338,823)"/>
<path d="M0 0 C18.15 0 36.3 0 55 0 C55.495 0.99 55.495 0.99 56 2 C38.51 1.67 21.02 1.34 3 1 C3.33 2.65 3.66 4.3 4 6 C2.62437146 4.71034824 1.29233607 3.37310707 0 2 C0 1.34 0 0.68 0 0 Z " fill="#5D89FB" transform="translate(141,365)"/>
<path d="M0 0 C2.9375 1.375 2.9375 1.375 5 3 C5 3.66 5 4.32 5 5 C-0.94 5 -6.88 5 -13 5 C-8.10304227 0.10304227 -6.77127904 -0.45906977 0 0 Z " fill="#4247F7" transform="translate(346,772)"/>
<path d="M0 0 C0.33 0 0.66 0 1 0 C1.33 6.93 1.66 13.86 2 21 C2.66 21 3.32 21 4 21 C3.67 23.64 3.34 26.28 3 29 C2.01 29.33 1.02 29.66 0 30 C0 20.1 0 10.2 0 0 Z " fill="#6889FB" transform="translate(227,283)"/>
<path d="M0 0 C0.99 0.33 1.98 0.66 3 1 C1.3718356 4.75730247 -1.01401917 7.616823 -3.625 10.75 C-4.85089844 12.22726562 -4.85089844 12.22726562 -6.1015625 13.734375 C-6.72804688 14.48203125 -7.35453125 15.2296875 -8 16 C-8.66 15.67 -9.32 15.34 -10 15 C-5.05 7.575 -5.05 7.575 0 0 Z " fill="#6D93FC" transform="translate(612,285)"/>
<path d="M0 0 C-5.02088768 3.42205752 -10.01094869 5.97543462 -15.703125 8.10546875 C-18.01621181 8.94604627 -18.01621181 8.94604627 -20.109375 10.17578125 C-22 11 -22 11 -25 10 C-21.40400558 8.12965549 -17.79702853 6.28157151 -14.1875 4.4375 C-12.65125977 3.63795898 -12.65125977 3.63795898 -11.08398438 2.82226562 C-10.10107422 2.32275391 -9.11816406 1.82324219 -8.10546875 1.30859375 C-7.19949951 0.84251709 -6.29353027 0.37644043 -5.36010742 -0.10375977 C-3 -1 -3 -1 0 0 Z " fill="#8EA6F9" transform="translate(443,436)"/>
<path d="M0 0 C0.33 0 0.66 0 1 0 C1 2.31 1 4.62 1 7 C1.95712891 6.98259766 1.95712891 6.98259766 2.93359375 6.96484375 C4.17302734 6.95130859 4.17302734 6.95130859 5.4375 6.9375 C6.26121094 6.92589844 7.08492187 6.91429687 7.93359375 6.90234375 C10 7 10 7 11 8 C11.04063832 9.66617115 11.042721 11.33388095 11 13 C10.01 13 9.02 13 8 13 C8.33 11.68 8.66 10.36 9 9 C6.03 9 3.06 9 0 9 C0 6.03 0 3.06 0 0 Z " fill="#3E41F7" transform="translate(568,797)"/>
<path d="M0 0 C0.33 0 0.66 0 1 0 C1 8.25 1 16.5 1 25 C0.01 25.33 -0.98 25.66 -2 26 C-2.33 24.35 -2.66 22.7 -3 21 C-2.01 21.33 -1.02 21.66 0 22 C0 14.74 0 7.48 0 0 Z " fill="#8FA4F9" transform="translate(432,287)"/>
<path d="M0 0 C1.36125 0.12375 1.36125 0.12375 2.75 0.25 C2.09 1.57 1.43 2.89 0.75 4.25 C-1.89 4.25 -4.53 4.25 -7.25 4.25 C-4.83923194 1.28290085 -3.90322061 0.30024774 0 0 Z " fill="#3134FA" transform="translate(340.25,772.75)"/>
<path d="M0 0 C0 0.99 0 1.98 0 3 C-2.31 2.34 -4.62 1.68 -7 1 C-7.2475 1.598125 -7.495 2.19625 -7.75 2.8125 C-9.16370012 5.28647521 -10.65055383 6.43370255 -13 8 C-10.26774007 0.22356789 -7.91760427 -0.38939037 0 0 Z " fill="#3C41F7" transform="translate(483,766)"/>
<path d="M0 0 C-1.32 0.33 -2.64 0.66 -4 1 C-3.67 2.32 -3.34 3.64 -3 5 C-4.32 5.33 -5.64 5.66 -7 6 C-6.67 5.01 -6.34 4.02 -6 3 C-7.98 3.33 -9.96 3.66 -12 4 C-8.59914501 0.59914501 -4.67235329 -1.5574511 0 0 Z " fill="#7798FA" transform="translate(416,449)"/>
<path d="M0 0 C0.66 0.33 1.32 0.66 2 1 C0.88121617 2.17262904 -0.24523051 3.33795138 -1.375 4.5 C-2.00148437 5.1496875 -2.62796875 5.799375 -3.2734375 6.46875 C-5 8 -5 8 -7 8 C-5.50902342 4.2047869 -3.24299151 2.38957269 0 0 Z " fill="#444BFA" transform="translate(223,713)"/>
<path d="M0 0 C0.66 0.99 1.32 1.98 2 3 C0.02 5.31 -1.96 7.62 -4 10 C-4.66 9.67 -5.32 9.34 -6 9 C-4.02 6.03 -2.04 3.06 0 0 Z " fill="#8FA3FA" transform="translate(608,291)"/>
<path d="M0 0 C0.33 0 0.66 0 1 0 C1 1.98 1 3.96 1 6 C1.66 6 2.32 6 3 6 C1.25 9.875 1.25 9.875 -1 11 C-0.67 7.37 -0.34 3.74 0 0 Z " fill="#6C91FB" transform="translate(105,187)"/>
<path d="M0 0 C1.125 1.75 1.125 1.75 2 4 C1.125 6.25 1.125 6.25 0 8 C-0.33 7.34 -0.66 6.68 -1 6 C-1.66 6 -2.32 6 -3 6 C-1.125 1.125 -1.125 1.125 0 0 Z " fill="#678EFC" transform="translate(620,273)"/>
<path d="M0 0 C0.99 0.99 1.98 1.98 3 3 C2.34 4.32 1.68 5.64 1 7 C0.01 6.67 -0.98 6.34 -2 6 C-1.34 4.02 -0.68 2.04 0 0 Z " fill="#5583FC" transform="translate(622,270)"/>
<path d="M0 0 C0.88492145 2.47778006 1.11637742 3.66056586 0.25 6.1875 C-1 8 -1 8 -4 9 C-2.94124926 5.59687262 -1.99097846 2.98646769 0 0 Z " fill="#6289FB" transform="translate(248,216)"/>
<path d="M0 0 C0.33 0.99 0.66 1.98 1 3 C1.99 3.33 2.98 3.66 4 4 C3.01 4.99 2.02 5.98 1 7 C0.01 6.67 -0.98 6.34 -2 6 C-1.34 4.02 -0.68 2.04 0 0 Z " fill="#7494FA" transform="translate(113,159)"/>
<path d="M0 0 C0.88492145 2.47778006 1.11637742 3.66056586 0.25 6.1875 C-1 8 -1 8 -4 9 C-2.94124926 5.59687262 -1.99097846 2.98646769 0 0 Z " fill="#6489FB" transform="translate(128,126)"/>
<path d="M0 0 C0.66 0.33 1.32 0.66 2 1 C0.25 6.75 0.25 6.75 -2 9 C-1.125 2.25 -1.125 2.25 0 0 Z " fill="#638DFC" transform="translate(239,284)"/>
</svg>
